{"glyphs":{"0":{"ha":732,"x_min":51,"x_max":681,"o":"m 365 -11 q 133 117 214 -11 q 51 485 51 244 q 88 756 51 644 q 194 924 124 867 q 365 981 264 981 q 599 852 518 981 q 681 485 681 724 q 644 215 681 325 q 537 47 607 104 q 365 -11 467 -11 m 365 22 q 517 74 454 22 q 612 230 579 126 q 644 485 644 333 q 572 830 644 713 q 365 947 499 947 q 215 895 276 947 q 120 740 153 843 q 88 485 88 636 q 160 140 88 258 q 365 22 232 22 z "},"1":{"ha":289,"x_min":35,"x_max":207,"o":"m 172 936 l 35 936 l 35 969 l 207 969 l 207 0 l 172 0 l 172 936 z "},"2":{"ha":596,"x_min":65,"x_max":557,"o":"m 67 21 l 400 446 q 492 597 463 526 q 522 736 522 668 q 466 890 522 833 q 313 947 410 947 q 157 883 215 947 q 99 717 99 819 q 108 633 99 678 l 75 633 q 65 717 65 675 q 133 907 65 833 q 314 981 200 981 q 492 914 426 981 q 557 735 557 847 q 526 588 557 661 q 426 426 496 515 l 110 21 l 96 33 l 557 33 l 557 0 l 67 0 l 67 21 z "},"3":{"ha":614,"x_min":28,"x_max":579,"o":"m 299 -6 q 156 30 218 -6 q 61 128 94 65 q 29 269 28 190 l 64 269 q 126 95 61 163 q 299 28 192 28 q 428 59 372 28 q 513 149 483 90 q 543 283 543 207 q 476 465 543 399 q 292 532 408 532 l 233 532 l 233 556 l 515 957 l 519 936 l 50 936 l 50 969 l 547 969 l 547 943 l 268 546 l 258 563 q 493 497 407 572 q 579 285 579 422 q 544 133 579 199 q 446 31 510 67 q 299 -6 382 -6 z "},"4":{"ha":644,"x_min":46,"x_max":607,"o":"m 450 190 l 46 190 l 46 211 l 439 969 l 485 969 l 485 0 l 450 0 l 450 190 m 475 224 l 607 224 l 607 190 l 475 190 l 475 224 m 75 224 l 451 224 l 453 921 l 450 921 l 83 210 l 75 224 z "},"5":{"ha":640,"x_min":36,"x_max":606,"o":"m 314 -6 q 168 30 232 -6 q 70 128 104 65 q 38 269 36 190 l 72 269 q 101 144 71 199 q 188 58 132 89 q 314 28 243 28 q 448 63 390 28 q 538 160 506 97 q 569 307 569 224 q 502 501 569 429 q 321 574 435 574 q 189 541 244 574 q 100 443 133 508 l 67 443 l 93 969 l 554 969 l 554 936 l 111 936 l 128 951 l 101 503 l 104 503 q 194 578 136 551 q 324 606 251 606 q 472 569 408 606 q 571 465 536 532 q 606 308 606 397 q 569 144 606 215 q 467 34 533 74 q 314 -6 400 -6 z "},"6":{"ha":636,"x_min":38,"x_max":599,"o":"m 140 500 l 140 506 q 222 556 175 539 q 322 574 269 574 q 465 536 401 574 q 563 432 528 499 q 599 282 599 365 q 563 131 599 197 q 463 26 528 64 q 317 -11 399 -11 q 172 26 235 -11 q 73 128 108 63 q 38 278 38 193 q 47 358 38 318 q 74 440 56 397 q 125 532 93 482 l 396 969 l 438 969 l 140 500 m 317 542 q 190 509 244 542 q 104 417 135 476 q 74 282 74 358 q 141 94 74 167 q 317 22 208 22 q 444 56 389 22 q 531 148 500 89 q 563 282 563 207 q 531 416 563 357 q 444 508 500 475 q 317 542 389 542 z "},"7":{"ha":499,"x_min":21,"x_max":456,"o":"m 21 969 l 456 969 l 456 949 l 171 0 l 135 0 l 421 950 l 432 936 l 21 936 l 21 969 z "},"8":{"ha":625,"x_min":32,"x_max":593,"o":"m 313 -7 q 165 27 229 -7 q 67 123 101 61 q 32 265 32 185 q 56 386 32 332 q 126 477 81 440 q 232 528 171 514 l 232 531 q 112 608 156 550 q 68 747 68 665 q 99 866 68 814 q 186 947 131 918 q 313 976 242 976 q 489 913 421 976 q 557 747 557 849 q 513 608 557 665 q 393 531 469 550 l 393 528 q 540 436 486 506 q 593 265 593 367 q 558 123 593 185 q 460 27 524 61 q 313 -7 396 -7 m 313 26 q 442 56 386 26 q 527 140 497 86 q 557 267 557 194 q 490 443 557 376 q 313 510 424 510 q 185 480 240 510 q 99 394 129 450 q 68 267 68 339 q 135 92 68 158 q 313 26 201 26 m 313 544 q 419 571 372 544 q 494 643 467 597 q 521 747 521 689 q 463 888 521 833 q 313 943 406 943 q 204 918 251 943 q 131 849 157 893 q 104 747 104 804 q 163 601 104 658 q 313 544 222 544 z "},"9":{"ha":636,"x_min":38,"x_max":599,"o":"m 496 469 l 496 464 q 414 413 461 431 q 314 396 367 396 q 172 433 235 396 q 73 538 108 471 q 38 688 38 604 q 73 839 38 772 q 173 943 108 906 q 319 981 238 981 q 465 944 401 981 q 563 842 528 907 q 599 692 599 776 q 590 612 599 651 q 562 530 581 572 q 511 438 543 488 l 240 0 l 199 0 l 496 469 m 319 428 q 447 460 392 428 q 532 552 501 493 q 563 688 563 611 q 495 875 563 803 q 319 947 428 947 q 192 914 247 947 q 105 822 136 881 q 74 688 74 763 q 105 553 74 613 q 192 461 136 494 q 319 428 247 428 z "}," ":{"ha":257,"x_min":0,"x_max":0,"o":""}," ":{"ha":257,"x_min":0,"x_max":0,"o":""},"A":{"ha":547,"x_min":11,"x_max":536,"o":"m 254 969 l 294 969 l 536 0 l 500 0 l 275 915 l 272 915 l 46 0 l 11 0 l 254 969 m 96 292 l 450 292 l 450 258 l 96 258 l 96 292 z "},"Á":{"ha":547,"x_min":11,"x_max":536,"o":"m 254 969 l 294 969 l 536 0 l 500 0 l 275 915 l 272 915 l 46 0 l 11 0 l 254 969 m 96 292 l 450 292 l 450 258 l 96 258 l 96 292 m 371 1236 l 410 1236 l 285 1046 l 249 1046 l 371 1236 z "},"Ă":{"ha":547,"x_min":11,"x_max":536,"o":"m 254 969 l 294 969 l 536 0 l 500 0 l 275 915 l 272 915 l 46 0 l 11 0 l 254 969 m 96 292 l 450 292 l 450 258 l 96 258 l 96 292 m 281 1054 q 174 1091 215 1054 q 128 1193 132 1128 l 158 1193 q 197 1115 164 1143 q 281 1086 229 1086 q 365 1115 332 1086 q 403 1193 397 1143 l 433 1193 q 388 1091 429 1128 q 281 1054 346 1054 z "},"Â":{"ha":547,"x_min":11,"x_max":536,"o":"m 254 969 l 294 969 l 536 0 l 500 0 l 275 915 l 272 915 l 46 0 l 11 0 l 254 969 m 96 292 l 450 292 l 450 258 l 96 258 l 96 292 m 263 1236 l 300 1236 l 447 1046 l 407 1046 l 282 1210 l 279 1210 l 154 1046 l 115 1046 l 263 1236 z "},"Ä":{"ha":547,"x_min":11,"x_max":536,"o":"m 254 969 l 294 969 l 536 0 l 500 0 l 275 915 l 272 915 l 46 0 l 11 0 l 254 969 m 96 292 l 450 292 l 450 258 l 96 258 l 96 292 m 156 1081 q 127 1092 139 1081 q 115 1121 115 1103 q 127 1150 115 1139 q 156 1161 139 1161 q 184 1150 172 1161 q 196 1121 196 1139 q 184 1092 196 1103 q 156 1081 172 1081 m 406 1081 q 377 1092 389 1081 q 365 1121 365 1103 q 377 1150 365 1139 q 406 1161 389 1161 q 434 1150 422 1161 q 446 1121 446 1139 q 434 1092 446 1103 q 406 1081 422 1081 z "},"À":{"ha":547,"x_min":11,"x_max":536,"o":"m 254 969 l 294 969 l 536 0 l 500 0 l 275 915 l 272 915 l 46 0 l 11 0 l 254 969 m 96 292 l 450 292 l 450 258 l 96 258 l 96 292 m 150 1236 l 190 1236 l 313 1046 l 275 1046 l 150 1236 z "},"Ā":{"ha":547,"x_min":11,"x_max":536,"o":"m 254 969 l 294 969 l 536 0 l 500 0 l 275 915 l 272 915 l 46 0 l 11 0 l 254 969 m 96 292 l 450 292 l 450 258 l 96 258 l 96 292 m 97 1135 l 464 1135 l 464 1104 l 97 1104 l 97 1135 z "},"Ą":{"ha":547,"x_min":11,"x_max":536,"o":"m 254 969 l 294 969 l 536 0 l 500 0 l 275 915 l 272 915 l 46 0 l 11 0 l 254 969 m 96 292 l 450 292 l 450 258 l 96 258 l 96 292 m 489 -228 q 417 -201 444 -228 q 389 -129 389 -174 q 426 -36 389 -78 q 519 21 463 6 l 536 0 q 481 -17 508 0 q 437 -63 454 -35 q 419 -125 419 -92 q 440 -179 419 -160 q 494 -199 460 -199 q 536 -192 517 -199 l 536 -219 q 489 -228 514 -228 z "},"Å":{"ha":547,"x_min":11,"x_max":536,"o":"m 254 969 l 294 969 l 536 0 l 500 0 l 275 915 l 272 915 l 46 0 l 11 0 l 254 969 m 96 292 l 450 292 l 450 258 l 96 258 l 96 292 m 281 1058 q 193 1092 228 1058 q 158 1179 158 1126 q 193 1266 158 1232 q 281 1300 228 1300 q 368 1266 333 1300 q 403 1179 403 1232 q 368 1092 403 1126 q 281 1058 333 1058 m 281 1088 q 346 1113 321 1088 q 371 1179 371 1139 q 346 1245 371 1219 q 281 1271 321 1271 q 215 1245 240 1271 q 190 1179 190 1219 q 215 1113 190 1139 q 281 1088 240 1088 z "},"Ã":{"ha":547,"x_min":11,"x_max":536,"o":"m 254 969 l 294 969 l 536 0 l 500 0 l 275 915 l 272 915 l 46 0 l 11 0 l 254 969 m 96 292 l 450 292 l 450 258 l 96 258 l 96 292 m 375 1056 q 324 1066 346 1056 q 271 1097 303 1076 q 225 1126 244 1117 q 183 1135 206 1135 q 137 1117 154 1135 q 118 1063 119 1099 l 88 1063 q 115 1138 88 1110 q 186 1165 142 1165 q 237 1155 215 1165 q 290 1124 258 1144 q 336 1095 317 1104 q 378 1086 356 1086 q 424 1104 407 1086 q 443 1158 442 1122 l 474 1158 q 447 1083 474 1111 q 375 1056 419 1056 z "},"Æ":{"ha":760,"x_min":11,"x_max":713,"o":"m 271 969 l 704 969 l 704 936 l 415 936 l 415 33 l 713 33 l 713 0 l 381 0 l 381 951 l 396 936 l 296 936 l 46 0 l 11 0 l 271 969 m 99 292 l 397 292 l 397 258 l 99 258 l 99 292 m 406 513 l 685 513 l 685 479 l 406 479 l 406 513 z "},"B":{"ha":544,"x_min":75,"x_max":503,"o":"m 75 969 l 211 969 q 406 911 336 969 q 475 746 475 853 q 454 641 475 689 q 392 560 433 593 q 293 511 351 526 l 293 508 q 449 430 394 492 q 503 265 503 368 q 468 123 503 183 q 372 31 433 63 q 231 0 311 0 l 75 0 l 75 969 m 226 33 q 351 59 297 33 q 436 136 406 85 q 467 263 467 188 q 399 433 467 375 q 213 490 331 490 l 110 490 l 110 33 l 226 33 m 200 524 q 325 551 271 524 q 409 627 379 578 q 439 742 439 676 q 378 887 439 838 q 204 936 317 936 l 110 936 l 110 524 l 200 524 z "},"C":{"ha":721,"x_min":32,"x_max":693,"o":"m 500 -7 q 258 55 365 -7 q 92 229 151 117 q 32 485 32 342 q 92 740 32 628 q 258 915 151 853 q 500 976 365 976 q 693 940 600 976 l 693 903 q 499 942 603 942 q 277 884 375 942 q 124 722 179 826 q 68 485 68 618 q 124 247 68 350 q 277 85 179 143 q 499 28 375 28 q 693 67 603 28 l 693 28 q 500 -7 599 -7 z "},"Ć":{"ha":721,"x_min":32,"x_max":693,"o":"m 500 -7 q 258 55 365 -7 q 92 229 151 117 q 32 485 32 342 q 92 740 32 628 q 258 915 151 853 q 500 976 365 976 q 693 940 600 976 l 693 903 q 499 942 603 942 q 277 884 375 942 q 124 722 179 826 q 68 485 68 618 q 124 247 68 350 q 277 85 179 143 q 499 28 375 28 q 693 67 603 28 l 693 28 q 500 -7 599 -7 m 554 1236 l 593 1236 l 468 1046 l 432 1046 l 554 1236 z "},"Č":{"ha":721,"x_min":32,"x_max":693,"o":"m 500 -7 q 258 55 365 -7 q 92 229 151 117 q 32 485 32 342 q 92 740 32 628 q 258 915 151 853 q 500 976 365 976 q 693 940 600 976 l 693 903 q 499 942 603 942 q 277 884 375 942 q 124 722 179 826 q 68 485 68 618 q 124 247 68 350 q 277 85 179 143 q 499 28 375 28 q 693 67 603 28 l 693 28 q 500 -7 599 -7 m 299 1228 l 339 1228 l 464 1064 l 467 1064 l 592 1228 l 631 1228 l 483 1038 l 446 1038 l 299 1228 z "},"Ç":{"ha":721,"x_min":32,"x_max":693,"o":"m 500 -7 q 258 55 365 -7 q 92 229 151 117 q 32 485 32 342 q 92 740 32 628 q 258 915 151 853 q 500 976 365 976 q 693 940 600 976 l 693 903 q 499 942 603 942 q 277 884 375 942 q 124 722 179 826 q 68 485 68 618 q 124 247 68 350 q 277 85 179 143 q 499 28 375 28 q 693 67 603 28 l 693 28 q 500 -7 599 -7 m 326 -203 l 429 22 l 458 11 l 358 -215 l 326 -203 z "},"D":{"ha":774,"x_min":75,"x_max":742,"o":"m 75 969 l 282 969 q 522 909 418 969 q 684 739 626 849 q 742 485 742 629 q 684 231 742 340 q 522 60 626 121 q 282 0 418 0 l 75 0 l 75 969 m 276 33 q 503 88 406 33 q 653 245 600 143 q 706 485 706 347 q 653 724 706 622 q 503 881 600 826 q 276 936 406 936 l 110 936 l 110 33 l 276 33 z "},"Ð":{"ha":843,"x_min":28,"x_max":811,"o":"m 144 969 l 351 969 q 592 909 488 969 q 753 739 696 849 q 811 485 811 629 q 753 231 811 340 q 592 60 696 121 q 351 0 488 0 l 144 0 l 144 969 m 28 514 l 422 514 l 422 481 l 28 481 l 28 514 m 346 33 q 572 88 475 33 q 722 245 669 143 q 775 485 775 347 q 722 724 775 622 q 572 881 669 826 q 346 936 475 936 l 179 936 l 179 33 l 346 33 z "},"Ď":{"ha":774,"x_min":75,"x_max":742,"o":"m 75 969 l 282 969 q 522 909 418 969 q 684 739 626 849 q 742 485 742 629 q 684 231 742 340 q 522 60 626 121 q 282 0 418 0 l 75 0 l 75 969 m 276 33 q 503 88 406 33 q 653 245 600 143 q 706 485 706 347 q 653 724 706 622 q 503 881 600 826 q 276 936 406 936 l 110 936 l 110 33 l 276 33 m 151 1228 l 192 1228 l 317 1064 l 319 1064 l 444 1228 l 483 1228 l 336 1038 l 299 1038 l 151 1228 z "},"Đ":{"ha":843,"x_min":28,"x_max":811,"o":"m 144 969 l 351 969 q 592 909 488 969 q 753 739 696 849 q 811 485 811 629 q 753 231 811 340 q 592 60 696 121 q 351 0 488 0 l 144 0 l 144 969 m 28 514 l 422 514 l 422 481 l 28 481 l 28 514 m 346 33 q 572 88 475 33 q 722 245 669 143 q 775 485 775 347 q 722 724 775 622 q 572 881 669 826 q 346 936 475 936 l 179 936 l 179 33 l 346 33 z "},"E":{"ha":454,"x_min":75,"x_max":407,"o":"m 75 969 l 399 969 l 399 936 l 110 936 l 110 33 l 407 33 l 407 0 l 75 0 l 75 969 m 96 514 l 379 514 l 379 481 l 96 481 l 96 514 z "},"É":{"ha":454,"x_min":75,"x_max":407,"o":"m 75 969 l 399 969 l 399 936 l 110 936 l 110 33 l 407 33 l 407 0 l 75 0 l 75 969 m 96 514 l 379 514 l 379 481 l 96 481 l 96 514 m 332 1236 l 371 1236 l 246 1046 l 210 1046 l 332 1236 z "},"Ě":{"ha":454,"x_min":75,"x_max":408,"o":"m 75 969 l 399 969 l 399 936 l 110 936 l 110 33 l 407 33 l 407 0 l 75 0 l 75 969 m 96 514 l 379 514 l 379 481 l 96 481 l 96 514 m 76 1228 l 117 1228 l 242 1064 l 244 1064 l 369 1228 l 408 1228 l 261 1038 l 224 1038 l 76 1228 z "},"Ê":{"ha":454,"x_min":75,"x_max":408,"o":"m 75 969 l 399 969 l 399 936 l 110 936 l 110 33 l 407 33 l 407 0 l 75 0 l 75 969 m 96 514 l 379 514 l 379 481 l 96 481 l 96 514 m 224 1236 l 261 1236 l 408 1046 l 368 1046 l 243 1210 l 240 1210 l 115 1046 l 76 1046 l 224 1236 z "},"Ë":{"ha":454,"x_min":75,"x_max":407,"o":"m 75 969 l 399 969 l 399 936 l 110 936 l 110 33 l 407 33 l 407 0 l 75 0 l 75 969 m 96 514 l 379 514 l 379 481 l 96 481 l 96 514 m 117 1081 q 88 1092 100 1081 q 76 1121 76 1103 q 88 1150 76 1139 q 117 1161 100 1161 q 145 1150 133 1161 q 157 1121 157 1139 q 145 1092 157 1103 q 117 1081 133 1081 m 367 1081 q 338 1092 350 1081 q 326 1121 326 1103 q 338 1150 326 1139 q 367 1161 350 1161 q 395 1150 383 1161 q 407 1121 407 1139 q 395 1092 407 1103 q 367 1081 383 1081 z "},"Ė":{"ha":454,"x_min":75,"x_max":407,"o":"m 75 969 l 399 969 l 399 936 l 110 936 l 110 33 l 407 33 l 407 0 l 75 0 l 75 969 m 96 514 l 379 514 l 379 481 l 96 481 l 96 514 m 242 1082 q 212 1094 224 1082 q 200 1124 200 1106 q 212 1153 200 1142 q 242 1165 224 1165 q 272 1153 260 1165 q 283 1124 283 1142 q 272 1094 283 1106 q 242 1082 260 1082 z "},"È":{"ha":454,"x_min":75,"x_max":407,"o":"m 75 969 l 399 969 l 399 936 l 110 936 l 110 33 l 407 33 l 407 0 l 75 0 l 75 969 m 96 514 l 379 514 l 379 481 l 96 481 l 96 514 m 111 1236 l 151 1236 l 274 1046 l 236 1046 l 111 1236 z "},"Ē":{"ha":454,"x_min":58,"x_max":425,"o":"m 75 969 l 399 969 l 399 936 l 110 936 l 110 33 l 407 33 l 407 0 l 75 0 l 75 969 m 96 514 l 379 514 l 379 481 l 96 481 l 96 514 m 58 1135 l 425 1135 l 425 1104 l 58 1104 l 58 1135 z "},"Ę":{"ha":454,"x_min":75,"x_max":407,"o":"m 75 969 l 399 969 l 399 936 l 110 936 l 110 33 l 407 33 l 407 0 l 75 0 l 75 969 m 96 514 l 379 514 l 379 481 l 96 481 l 96 514 m 360 -228 q 288 -201 315 -228 q 260 -129 260 -174 q 297 -36 260 -78 q 390 21 333 6 l 407 0 q 352 -17 379 0 q 308 -63 325 -35 q 290 -125 290 -92 q 310 -179 290 -160 q 365 -199 331 -199 q 407 -192 388 -199 l 407 -219 q 360 -228 385 -228 z "},"F":{"ha":400,"x_min":75,"x_max":368,"o":"m 75 969 l 368 969 l 368 936 l 110 936 l 110 0 l 75 0 l 75 969 m 96 493 l 347 493 l 347 460 l 96 460 l 96 493 z "},"G":{"ha":897,"x_min":32,"x_max":838,"o":"m 488 -7 q 251 55 354 -7 q 90 228 147 117 q 32 485 32 340 q 92 740 32 628 q 258 915 151 853 q 499 976 364 976 q 647 956 576 976 q 772 904 717 936 l 772 864 q 646 922 719 900 q 496 943 572 943 q 275 885 372 943 q 123 724 178 828 q 68 485 68 619 q 120 244 68 349 q 267 83 172 140 q 488 26 363 26 q 656 52 571 26 q 819 131 740 78 l 803 106 l 803 482 l 819 460 l 557 460 l 557 493 l 838 493 l 838 99 q 669 22 758 50 q 488 -7 581 -7 z "},"Ģ":{"ha":897,"x_min":32,"x_max":838,"o":"m 488 -7 q 251 55 354 -7 q 90 228 147 117 q 32 485 32 340 q 92 740 32 628 q 258 915 151 853 q 499 976 364 976 q 647 956 576 976 q 772 904 717 936 l 772 864 q 646 922 719 900 q 496 943 572 943 q 275 885 372 943 q 123 724 178 828 q 68 485 68 619 q 120 244 68 349 q 267 83 172 140 q 488 26 363 26 q 656 52 571 26 q 819 131 740 78 l 803 106 l 803 482 l 819 460 l 557 460 l 557 493 l 838 493 l 838 99 q 669 22 758 50 q 488 -7 581 -7 m 467 -69 l 501 -69 l 449 -243 l 418 -243 l 467 -69 z "},"H":{"ha":589,"x_min":75,"x_max":514,"o":"m 479 969 l 514 969 l 514 0 l 479 0 l 479 969 m 75 969 l 110 969 l 110 0 l 75 0 l 75 969 m 96 514 l 490 514 l 490 481 l 96 481 l 96 514 z "},"I":{"ha":185,"x_min":75,"x_max":110,"o":"m 75 969 l 110 969 l 110 0 l 75 0 l 75 969 z "},"Ĳ":{"ha":568,"x_min":75,"x_max":499,"o":"m 75 969 l 110 969 l 110 0 l 75 0 l 75 969 m 314 -11 q 204 11 260 -11 l 204 49 q 314 22 254 22 q 427 70 390 22 q 464 213 464 118 l 464 969 l 499 969 l 499 207 q 453 47 499 104 q 314 -11 407 -11 z "},"Í":{"ha":185,"x_min":61,"x_max":222,"o":"m 75 969 l 110 969 l 110 0 l 75 0 l 75 969 m 183 1236 l 222 1236 l 97 1046 l 61 1046 l 183 1236 z "},"Î":{"ha":185,"x_min":-72,"x_max":260,"o":"m 75 969 l 110 969 l 110 0 l 75 0 l 75 969 m 75 1236 l 113 1236 l 260 1046 l 219 1046 l 94 1210 l 92 1210 l -33 1046 l -72 1046 l 75 1236 z "},"Ï":{"ha":185,"x_min":-72,"x_max":258,"o":"m 75 969 l 110 969 l 110 0 l 75 0 l 75 969 m -32 1081 q -60 1092 -49 1081 q -72 1121 -72 1103 q -60 1150 -72 1139 q -32 1161 -49 1161 q -3 1150 -15 1161 q 8 1121 8 1139 q -3 1092 8 1103 q -32 1081 -15 1081 m 218 1081 q 190 1092 201 1081 q 178 1121 178 1103 q 190 1150 178 1139 q 218 1161 201 1161 q 247 1150 235 1161 q 258 1121 258 1139 q 247 1092 258 1103 q 218 1081 235 1081 z "},"Ì":{"ha":185,"x_min":-37,"x_max":125,"o":"m 75 969 l 110 969 l 110 0 l 75 0 l 75 969 m -37 1236 l 3 1236 l 125 1046 l 88 1046 l -37 1236 z "},"Ī":{"ha":185,"x_min":-90,"x_max":276,"o":"m 75 969 l 110 969 l 110 0 l 75 0 l 75 969 m -90 1135 l 276 1135 l 276 1104 l -90 1104 l -90 1135 z "},"Į":{"ha":185,"x_min":-37,"x_max":110,"o":"m 75 969 l 110 969 l 110 0 l 75 0 l 75 969 m 63 -228 q -10 -201 18 -228 q -37 -129 -37 -174 q -1 -36 -37 -78 q 93 21 36 6 l 110 0 q 55 -17 82 0 q 10 -63 28 -35 q -7 -125 -7 -92 q 13 -179 -7 -160 q 68 -199 33 -199 q 110 -192 90 -199 l 110 -219 q 63 -228 88 -228 z "},"J":{"ha":392,"x_min":28,"x_max":322,"o":"m 138 -11 q 28 11 83 -11 l 28 49 q 138 22 78 22 q 251 70 214 22 q 288 213 288 118 l 288 969 l 322 969 l 322 207 q 276 47 322 104 q 138 -11 231 -11 z "},"K":{"ha":524,"x_min":75,"x_max":489,"o":"m 75 969 l 110 969 l 110 503 l 113 503 l 446 969 l 489 969 l 140 488 l 132 503 l 214 503 q 399 444 338 503 q 461 265 461 385 l 461 0 l 426 0 l 426 260 q 374 420 426 371 q 206 469 322 469 l 96 469 l 110 483 l 110 0 l 75 0 l 75 969 z "},"Ķ":{"ha":524,"x_min":75,"x_max":489,"o":"m 75 969 l 110 969 l 110 503 l 113 503 l 446 969 l 489 969 l 140 488 l 132 503 l 214 503 q 399 444 338 503 q 461 265 461 385 l 461 0 l 426 0 l 426 260 q 374 420 426 371 q 206 469 322 469 l 96 469 l 110 483 l 110 0 l 75 0 l 75 969 m 254 -69 l 289 -69 l 236 -243 l 206 -243 l 254 -69 z "},"L":{"ha":374,"x_min":75,"x_max":346,"o":"m 75 969 l 110 969 l 110 33 l 346 33 l 346 0 l 75 0 l 75 969 z "},"Ĺ":{"ha":374,"x_min":61,"x_max":346,"o":"m 75 969 l 110 969 l 110 33 l 346 33 l 346 0 l 75 0 l 75 969 m 183 1236 l 222 1236 l 97 1046 l 61 1046 l 183 1236 z "},"Ľ":{"ha":374,"x_min":75,"x_max":346,"o":"m 75 969 l 110 969 l 110 33 l 346 33 l 346 0 l 75 0 l 75 969 m 229 1076 l 263 1076 l 233 804 l 201 804 l 229 1076 z "},"Ļ":{"ha":374,"x_min":75,"x_max":346,"o":"m 75 969 l 110 969 l 110 33 l 346 33 l 346 0 l 75 0 l 75 969 m 201 -69 l 236 -69 l 183 -243 l 153 -243 l 201 -69 z "},"Ł":{"ha":404,"x_min":22,"x_max":376,"o":"m 22 503 l 342 665 l 342 629 l 22 467 l 22 503 m 106 969 l 140 969 l 140 33 l 376 33 l 376 0 l 106 0 l 106 969 z "},"M":{"ha":926,"x_min":49,"x_max":878,"o":"m 179 969 l 229 969 l 464 46 l 467 46 l 699 969 l 749 969 l 878 0 l 843 0 l 722 924 l 719 924 l 486 0 l 443 0 l 208 924 l 206 924 l 82 0 l 49 0 l 179 969 z "},"N":{"ha":650,"x_min":75,"x_max":575,"o":"m 75 969 l 128 969 l 539 46 l 542 46 l 540 969 l 575 969 l 575 0 l 522 0 l 111 924 l 108 924 l 110 0 l 75 0 l 75 969 z "},"Ń":{"ha":650,"x_min":75,"x_max":575,"o":"m 75 969 l 128 969 l 539 46 l 542 46 l 540 969 l 575 969 l 575 0 l 522 0 l 111 924 l 108 924 l 110 0 l 75 0 l 75 969 m 410 1236 l 449 1236 l 324 1046 l 288 1046 l 410 1236 z "},"Ň":{"ha":650,"x_min":75,"x_max":575,"o":"m 75 969 l 128 969 l 539 46 l 542 46 l 540 969 l 575 969 l 575 0 l 522 0 l 111 924 l 108 924 l 110 0 l 75 0 l 75 969 m 154 1228 l 194 1228 l 319 1064 l 322 1064 l 447 1228 l 486 1228 l 339 1038 l 301 1038 l 154 1228 z "},"Ņ":{"ha":650,"x_min":75,"x_max":575,"o":"m 75 969 l 128 969 l 539 46 l 542 46 l 540 969 l 575 969 l 575 0 l 522 0 l 111 924 l 108 924 l 110 0 l 75 0 l 75 969 m 314 -69 l 349 -69 l 296 -243 l 265 -243 l 314 -69 z "},"Ñ":{"ha":650,"x_min":75,"x_max":575,"o":"m 75 969 l 128 969 l 539 46 l 542 46 l 540 969 l 575 969 l 575 0 l 522 0 l 111 924 l 108 924 l 110 0 l 75 0 l 75 969 m 414 1056 q 363 1066 385 1056 q 310 1097 342 1076 q 264 1126 283 1117 q 222 1135 244 1135 q 176 1117 193 1135 q 157 1063 158 1099 l 126 1063 q 153 1138 126 1110 q 225 1165 181 1165 q 276 1155 254 1165 q 329 1124 297 1144 q 375 1095 356 1104 q 417 1086 394 1086 q 463 1104 446 1086 q 482 1158 481 1122 l 513 1158 q 485 1083 513 1111 q 414 1056 458 1056 z "},"Ŋ":{"ha":626,"x_min":75,"x_max":551,"o":"m 368 -194 q 257 -172 313 -194 l 257 -135 q 367 -161 307 -161 q 474 -125 435 -161 q 514 -25 514 -89 q 496 57 514 15 l 113 924 l 110 924 l 110 0 l 75 0 l 75 969 l 129 969 l 514 100 l 517 100 l 517 969 l 551 969 l 551 -11 q 505 -144 551 -93 q 368 -194 458 -194 z "},"O":{"ha":1003,"x_min":32,"x_max":971,"o":"m 501 -7 q 261 53 368 -7 q 93 226 154 114 q 32 485 32 338 q 93 744 32 632 q 261 916 154 856 q 501 976 368 976 q 742 916 635 976 q 910 744 849 856 q 971 485 971 632 q 910 226 971 338 q 742 53 849 114 q 501 -7 635 -7 m 501 26 q 724 82 626 26 q 878 242 822 138 q 935 485 935 346 q 878 728 935 624 q 724 888 822 832 q 501 943 626 943 q 279 887 378 943 q 124 726 181 831 q 68 485 68 622 q 124 242 68 346 q 279 83 181 139 q 501 26 378 26 z "},"Ó":{"ha":1003,"x_min":32,"x_max":971,"o":"m 501 -7 q 261 53 368 -7 q 93 226 154 114 q 32 485 32 338 q 93 744 32 632 q 261 916 154 856 q 501 976 368 976 q 742 916 635 976 q 910 744 849 856 q 971 485 971 632 q 910 226 971 338 q 742 53 849 114 q 501 -7 635 -7 m 501 26 q 724 82 626 26 q 878 242 822 138 q 935 485 935 346 q 878 728 935 624 q 724 888 822 832 q 501 943 626 943 q 279 887 378 943 q 124 726 181 831 q 68 485 68 622 q 124 242 68 346 q 279 83 181 139 q 501 26 378 26 m 592 1236 l 631 1236 l 506 1046 l 469 1046 l 592 1236 z "},"Ô":{"ha":1003,"x_min":32,"x_max":971,"o":"m 501 -7 q 261 53 368 -7 q 93 226 154 114 q 32 485 32 338 q 93 744 32 632 q 261 916 154 856 q 501 976 368 976 q 742 916 635 976 q 910 744 849 856 q 971 485 971 632 q 910 226 971 338 q 742 53 849 114 q 501 -7 635 -7 m 501 26 q 724 82 626 26 q 878 242 822 138 q 935 485 935 346 q 878 728 935 624 q 724 888 822 832 q 501 943 626 943 q 279 887 378 943 q 124 726 181 831 q 68 485 68 622 q 124 242 68 346 q 279 83 181 139 q 501 26 378 26 m 483 1236 l 521 1236 l 668 1046 l 628 1046 l 503 1210 l 500 1210 l 375 1046 l 336 1046 l 483 1236 z "},"Ö":{"ha":1003,"x_min":32,"x_max":971,"o":"m 501 -7 q 261 53 368 -7 q 93 226 154 114 q 32 485 32 338 q 93 744 32 632 q 261 916 154 856 q 501 976 368 976 q 742 916 635 976 q 910 744 849 856 q 971 485 971 632 q 910 226 971 338 q 742 53 849 114 q 501 -7 635 -7 m 501 26 q 724 82 626 26 q 878 242 822 138 q 935 485 935 346 q 878 728 935 624 q 724 888 822 832 q 501 943 626 943 q 279 887 378 943 q 124 726 181 831 q 68 485 68 622 q 124 242 68 346 q 279 83 181 139 q 501 26 378 26 m 376 1081 q 348 1092 360 1081 q 336 1121 336 1103 q 348 1150 336 1139 q 376 1161 360 1161 q 405 1150 393 1161 q 417 1121 417 1139 q 405 1092 417 1103 q 376 1081 393 1081 m 626 1081 q 598 1092 610 1081 q 586 1121 586 1103 q 598 1150 586 1139 q 626 1161 610 1161 q 655 1150 643 1161 q 667 1121 667 1139 q 655 1092 667 1103 q 626 1081 643 1081 z "},"Ò":{"ha":1003,"x_min":32,"x_max":971,"o":"m 501 -7 q 261 53 368 -7 q 93 226 154 114 q 32 485 32 338 q 93 744 32 632 q 261 916 154 856 q 501 976 368 976 q 742 916 635 976 q 910 744 849 856 q 971 485 971 632 q 910 226 971 338 q 742 53 849 114 q 501 -7 635 -7 m 501 26 q 724 82 626 26 q 878 242 822 138 q 935 485 935 346 q 878 728 935 624 q 724 888 822 832 q 501 943 626 943 q 279 887 378 943 q 124 726 181 831 q 68 485 68 622 q 124 242 68 346 q 279 83 181 139 q 501 26 378 26 m 371 1236 l 411 1236 l 533 1046 l 496 1046 l 371 1236 z "},"Ő":{"ha":1003,"x_min":32,"x_max":971,"o":"m 501 -7 q 261 53 368 -7 q 93 226 154 114 q 32 485 32 338 q 93 744 32 632 q 261 916 154 856 q 501 976 368 976 q 742 916 635 976 q 910 744 849 856 q 971 485 971 632 q 910 226 971 338 q 742 53 849 114 q 501 -7 635 -7 m 501 26 q 724 82 626 26 q 878 242 822 138 q 935 485 935 346 q 878 728 935 624 q 724 888 822 832 q 501 943 626 943 q 279 887 378 943 q 124 726 181 831 q 68 485 68 622 q 124 242 68 346 q 279 83 181 139 q 501 26 378 26 m 464 1236 l 500 1236 l 426 1046 l 394 1046 l 464 1236 m 658 1236 l 694 1236 l 608 1046 l 575 1046 l 658 1236 z "},"Ō":{"ha":1003,"x_min":32,"x_max":971,"o":"m 501 -7 q 261 53 368 -7 q 93 226 154 114 q 32 485 32 338 q 93 744 32 632 q 261 916 154 856 q 501 976 368 976 q 742 916 635 976 q 910 744 849 856 q 971 485 971 632 q 910 226 971 338 q 742 53 849 114 q 501 -7 635 -7 m 501 26 q 724 82 626 26 q 878 242 822 138 q 935 485 935 346 q 878 728 935 624 q 724 888 822 832 q 501 943 626 943 q 279 887 378 943 q 124 726 181 831 q 68 485 68 622 q 124 242 68 346 q 279 83 181 139 q 501 26 378 26 m 318 1135 l 685 1135 l 685 1104 l 318 1104 l 318 1135 z "},"Ø":{"ha":1003,"x_min":32,"x_max":971,"o":"m 71 -7 l 907 1000 l 932 978 l 96 -29 l 71 -7 m 501 -7 q 261 54 368 -7 q 93 227 154 115 q 32 486 32 339 q 93 745 32 633 q 261 917 154 857 q 501 978 368 978 q 742 917 635 978 q 910 745 849 857 q 971 486 971 633 q 910 227 971 339 q 742 54 849 115 q 501 -7 635 -7 m 501 28 q 724 83 626 28 q 878 243 822 139 q 935 486 935 347 q 878 729 935 625 q 724 889 822 833 q 501 944 626 944 q 279 888 378 944 q 124 728 181 832 q 68 486 68 624 q 124 244 68 347 q 279 84 181 140 q 501 28 378 28 z "},"Õ":{"ha":1003,"x_min":32,"x_max":971,"o":"m 501 -7 q 261 53 368 -7 q 93 226 154 114 q 32 485 32 338 q 93 744 32 632 q 261 916 154 856 q 501 976 368 976 q 742 916 635 976 q 910 744 849 856 q 971 485 971 632 q 910 226 971 338 q 742 53 849 114 q 501 -7 635 -7 m 501 26 q 724 82 626 26 q 878 242 822 138 q 935 485 935 346 q 878 728 935 624 q 724 888 822 832 q 501 943 626 943 q 279 887 378 943 q 124 726 181 831 q 68 485 68 622 q 124 242 68 346 q 279 83 181 139 q 501 26 378 26 m 596 1056 q 545 1066 567 1056 q 492 1097 524 1076 q 446 1126 465 1117 q 404 1135 426 1135 q 358 1117 375 1135 q 339 1063 340 1099 l 308 1063 q 335 1138 308 1110 q 407 1165 363 1165 q 458 1155 436 1165 q 511 1124 479 1144 q 557 1095 538 1104 q 599 1086 576 1086 q 645 1104 628 1086 q 664 1158 663 1122 l 694 1158 q 667 1083 694 1111 q 596 1056 640 1056 z "},"Œ":{"ha":1300,"x_min":32,"x_max":1253,"o":"m 497 -7 q 258 53 364 -7 q 92 226 153 114 q 32 485 32 338 q 92 744 32 632 q 258 916 153 856 q 497 976 364 976 q 765 894 653 976 q 919 665 876 811 l 922 665 l 922 969 l 1244 969 l 1244 936 l 956 936 l 956 33 l 1253 33 l 1253 0 l 922 0 l 922 304 l 919 304 q 765 76 876 158 q 497 -7 653 -7 m 497 26 q 717 82 621 26 q 865 242 813 138 q 918 485 918 346 q 865 728 918 624 q 717 888 813 832 q 497 943 621 943 q 276 887 374 943 q 124 727 179 831 q 68 485 68 624 q 124 242 68 346 q 276 82 179 138 q 497 26 374 26 m 946 513 l 1225 513 l 1225 479 l 946 479 l 946 513 z "},"P":{"ha":497,"x_min":75,"x_max":472,"o":"m 75 969 l 204 969 q 346 936 285 969 q 440 841 407 903 q 472 693 472 779 q 440 545 472 607 q 346 450 407 483 q 204 417 285 417 l 97 417 l 97 450 l 203 450 q 326 478 274 450 q 408 560 379 506 q 436 692 436 614 q 373 872 436 807 q 203 936 310 936 l 97 936 l 110 949 l 110 0 l 75 0 l 75 969 z "},"Þ":{"ha":497,"x_min":75,"x_max":472,"o":"m 97 254 l 203 254 q 326 282 274 254 q 408 364 379 310 q 436 496 436 418 q 373 676 436 611 q 203 740 310 740 l 97 740 l 97 774 l 204 774 q 400 700 328 774 q 472 497 472 626 q 440 349 472 411 q 346 254 407 288 q 204 221 285 221 l 97 221 l 97 254 m 75 969 l 110 969 l 110 0 l 75 0 l 75 969 z "},"Q":{"ha":1003,"x_min":32,"x_max":971,"o":"m 436 492 l 479 492 l 938 -100 l 894 -100 l 436 492 m 501 -7 q 261 53 368 -7 q 93 226 154 114 q 32 485 32 338 q 93 744 32 632 q 261 916 154 856 q 501 976 368 976 q 742 916 635 976 q 910 744 849 856 q 971 485 971 632 q 910 226 971 338 q 742 53 849 114 q 501 -7 635 -7 m 501 26 q 724 82 626 26 q 878 242 822 138 q 935 485 935 346 q 878 728 935 624 q 724 888 822 832 q 501 943 626 943 q 279 887 378 943 q 124 726 181 831 q 68 485 68 622 q 124 242 68 346 q 279 83 181 139 q 501 26 378 26 z "},"R":{"ha":528,"x_min":75,"x_max":475,"o":"m 75 969 l 211 969 q 406 908 336 969 q 475 736 475 847 q 428 584 475 646 q 293 500 382 522 l 293 497 q 425 422 382 482 q 468 247 468 363 l 468 0 l 433 0 l 433 246 q 379 424 433 368 q 213 479 325 479 l 97 479 l 97 513 l 200 513 q 325 540 271 513 q 409 617 379 567 q 439 733 439 667 q 378 885 439 833 q 204 936 317 936 l 100 936 l 110 950 l 110 0 l 75 0 l 75 969 z "},"Ŕ":{"ha":528,"x_min":75,"x_max":475,"o":"m 75 969 l 211 969 q 406 908 336 969 q 475 736 475 847 q 428 584 475 646 q 293 500 382 522 l 293 497 q 425 422 382 482 q 468 247 468 363 l 468 0 l 433 0 l 433 246 q 379 424 433 368 q 213 479 325 479 l 97 479 l 97 513 l 200 513 q 325 540 271 513 q 409 617 379 567 q 439 733 439 667 q 378 885 439 833 q 204 936 317 936 l 100 936 l 110 950 l 110 0 l 75 0 l 75 969 m 339 1236 l 378 1236 l 253 1046 l 217 1046 l 339 1236 z "},"Ř":{"ha":528,"x_min":75,"x_max":475,"o":"m 75 969 l 211 969 q 406 908 336 969 q 475 736 475 847 q 428 584 475 646 q 293 500 382 522 l 293 497 q 425 422 382 482 q 468 247 468 363 l 468 0 l 433 0 l 433 246 q 379 424 433 368 q 213 479 325 479 l 97 479 l 97 513 l 200 513 q 325 540 271 513 q 409 617 379 567 q 439 733 439 667 q 378 885 439 833 q 204 936 317 936 l 100 936 l 110 950 l 110 0 l 75 0 l 75 969 m 83 1228 l 124 1228 l 249 1064 l 251 1064 l 376 1228 l 415 1228 l 268 1038 l 231 1038 l 83 1228 z "},"Ŗ":{"ha":528,"x_min":75,"x_max":475,"o":"m 75 969 l 211 969 q 406 908 336 969 q 475 736 475 847 q 428 584 475 646 q 293 500 382 522 l 293 497 q 425 422 382 482 q 468 247 468 363 l 468 0 l 433 0 l 433 246 q 379 424 433 368 q 213 479 325 479 l 97 479 l 97 513 l 200 513 q 325 540 271 513 q 409 617 379 567 q 439 733 439 667 q 378 885 439 833 q 204 936 317 936 l 100 936 l 110 950 l 110 0 l 75 0 l 75 969 m 253 -69 l 288 -69 l 235 -243 l 204 -243 l 253 -69 z "},"S":{"ha":429,"x_min":22,"x_max":393,"o":"m 167 -11 q 93 -3 131 -11 q 22 22 56 6 l 22 63 q 169 22 90 22 q 266 44 224 22 q 333 109 308 67 q 357 211 357 151 q 330 327 357 272 q 246 447 303 382 l 139 568 q 65 676 89 626 q 42 781 42 725 q 67 887 42 842 q 140 956 93 932 q 247 981 186 981 q 360 961 301 981 l 360 924 q 303 941 332 935 q 243 947 274 947 q 122 903 167 947 q 78 782 78 860 q 99 687 78 731 q 169 588 121 643 l 278 465 q 365 340 336 399 q 393 214 393 281 q 365 94 393 144 q 285 16 336 43 q 167 -11 233 -11 z "},"Ś":{"ha":429,"x_min":22,"x_max":393,"o":"m 167 -11 q 93 -3 131 -11 q 22 22 56 6 l 22 63 q 169 22 90 22 q 266 44 224 22 q 333 109 308 67 q 357 211 357 151 q 330 327 357 272 q 246 447 303 382 l 139 568 q 65 676 89 626 q 42 781 42 725 q 67 887 42 842 q 140 956 93 932 q 247 981 186 981 q 360 961 301 981 l 360 924 q 303 941 332 935 q 243 947 274 947 q 122 903 167 947 q 78 782 78 860 q 99 687 78 731 q 169 588 121 643 l 278 465 q 365 340 336 399 q 393 214 393 281 q 365 94 393 144 q 285 16 336 43 q 167 -11 233 -11 m 307 1236 l 346 1236 l 221 1046 l 185 1046 l 307 1236 z "},"Š":{"ha":429,"x_min":22,"x_max":393,"o":"m 167 -11 q 93 -3 131 -11 q 22 22 56 6 l 22 63 q 169 22 90 22 q 266 44 224 22 q 333 109 308 67 q 357 211 357 151 q 330 327 357 272 q 246 447 303 382 l 139 568 q 65 676 89 626 q 42 781 42 725 q 67 887 42 842 q 140 956 93 932 q 247 981 186 981 q 360 961 301 981 l 360 924 q 303 941 332 935 q 243 947 274 947 q 122 903 167 947 q 78 782 78 860 q 99 687 78 731 q 169 588 121 643 l 278 465 q 365 340 336 399 q 393 214 393 281 q 365 94 393 144 q 285 16 336 43 q 167 -11 233 -11 m 51 1228 l 92 1228 l 217 1064 l 219 1064 l 344 1228 l 383 1228 l 236 1038 l 199 1038 l 51 1228 z "},"Ş":{"ha":429,"x_min":22,"x_max":393,"o":"m 167 -11 q 93 -3 131 -11 q 22 22 56 6 l 22 63 q 169 22 90 22 q 266 44 224 22 q 333 109 308 67 q 357 211 357 151 q 330 327 357 272 q 246 447 303 382 l 139 568 q 65 676 89 626 q 42 781 42 725 q 67 887 42 842 q 140 956 93 932 q 247 981 186 981 q 360 961 301 981 l 360 924 q 303 941 332 935 q 243 947 274 947 q 122 903 167 947 q 78 782 78 860 q 99 687 78 731 q 169 588 121 643 l 278 465 q 365 340 336 399 q 393 214 393 281 q 365 94 393 144 q 285 16 336 43 q 167 -11 233 -11 m 83 -203 l 186 22 l 215 11 l 115 -215 l 83 -203 z "},"ẞ":{"ha":643,"x_min":75,"x_max":618,"o":"m 339 -6 q 219 11 283 -6 l 219 47 q 279 33 250 38 q 336 28 308 28 q 467 58 411 28 q 552 144 522 88 q 582 279 582 201 q 511 458 582 400 q 331 515 440 515 l 258 515 l 258 539 l 528 949 l 535 936 l 110 936 l 110 0 l 75 0 l 75 969 l 564 969 l 564 943 l 296 536 l 292 549 q 531 488 443 556 q 618 281 618 419 q 582 127 618 192 q 483 28 546 63 q 339 -6 419 -6 z "},"T":{"ha":438,"x_min":14,"x_max":424,"o":"m 201 956 l 236 956 l 236 0 l 201 0 l 201 956 m 14 969 l 424 969 l 424 936 l 14 936 l 14 969 z "},"Ŧ":{"ha":438,"x_min":14,"x_max":424,"o":"m 201 956 l 236 956 l 236 0 l 201 0 l 201 956 m 56 513 l 382 513 l 382 481 l 56 481 l 56 513 m 14 969 l 424 969 l 424 936 l 14 936 l 14 969 z "},"Ť":{"ha":438,"x_min":14,"x_max":424,"o":"m 201 956 l 236 956 l 236 0 l 201 0 l 201 956 m 14 969 l 424 969 l 424 936 l 14 936 l 14 969 m 54 1228 l 94 1228 l 219 1064 l 222 1064 l 347 1228 l 386 1228 l 239 1038 l 201 1038 l 54 1228 z "},"Ţ":{"ha":438,"x_min":14,"x_max":424,"o":"m 201 956 l 236 956 l 236 0 l 201 0 l 201 956 m 14 969 l 424 969 l 424 936 l 14 936 l 14 969 m 103 -203 l 206 22 l 235 11 l 135 -215 l 103 -203 z "},"U":{"ha":564,"x_min":69,"x_max":494,"o":"m 282 -11 q 124 50 178 -11 q 69 221 69 111 l 69 969 l 104 969 l 104 226 q 149 74 104 126 q 282 22 194 22 q 415 74 369 22 q 460 226 460 126 l 460 969 l 494 969 l 494 221 q 440 50 494 111 q 282 -11 386 -11 z "},"Ú":{"ha":564,"x_min":69,"x_max":494,"o":"m 282 -11 q 124 50 178 -11 q 69 221 69 111 l 69 969 l 104 969 l 104 226 q 149 74 104 126 q 282 22 194 22 q 415 74 369 22 q 460 226 460 126 l 460 969 l 494 969 l 494 221 q 440 50 494 111 q 282 -11 386 -11 m 371 1236 l 410 1236 l 285 1046 l 249 1046 l 371 1236 z "},"Û":{"ha":564,"x_min":69,"x_max":494,"o":"m 282 -11 q 124 50 178 -11 q 69 221 69 111 l 69 969 l 104 969 l 104 226 q 149 74 104 126 q 282 22 194 22 q 415 74 369 22 q 460 226 460 126 l 460 969 l 494 969 l 494 221 q 440 50 494 111 q 282 -11 386 -11 m 263 1236 l 300 1236 l 447 1046 l 407 1046 l 282 1210 l 279 1210 l 154 1046 l 115 1046 l 263 1236 z "},"Ü":{"ha":564,"x_min":69,"x_max":494,"o":"m 282 -11 q 124 50 178 -11 q 69 221 69 111 l 69 969 l 104 969 l 104 226 q 149 74 104 126 q 282 22 194 22 q 415 74 369 22 q 460 226 460 126 l 460 969 l 494 969 l 494 221 q 440 50 494 111 q 282 -11 386 -11 m 156 1081 q 127 1092 139 1081 q 115 1121 115 1103 q 127 1150 115 1139 q 156 1161 139 1161 q 184 1150 172 1161 q 196 1121 196 1139 q 184 1092 196 1103 q 156 1081 172 1081 m 406 1081 q 377 1092 389 1081 q 365 1121 365 1103 q 377 1150 365 1139 q 406 1161 389 1161 q 434 1150 422 1161 q 446 1121 446 1139 q 434 1092 446 1103 q 406 1081 422 1081 z "},"Ù":{"ha":564,"x_min":69,"x_max":494,"o":"m 282 -11 q 124 50 178 -11 q 69 221 69 111 l 69 969 l 104 969 l 104 226 q 149 74 104 126 q 282 22 194 22 q 415 74 369 22 q 460 226 460 126 l 460 969 l 494 969 l 494 221 q 440 50 494 111 q 282 -11 386 -11 m 150 1236 l 190 1236 l 313 1046 l 275 1046 l 150 1236 z "},"Ű":{"ha":564,"x_min":69,"x_max":494,"o":"m 282 -11 q 124 50 178 -11 q 69 221 69 111 l 69 969 l 104 969 l 104 226 q 149 74 104 126 q 282 22 194 22 q 415 74 369 22 q 460 226 460 126 l 460 969 l 494 969 l 494 221 q 440 50 494 111 q 282 -11 386 -11 m 243 1236 l 279 1236 l 206 1046 l 174 1046 l 243 1236 m 438 1236 l 474 1236 l 388 1046 l 354 1046 l 438 1236 z "},"Ū":{"ha":564,"x_min":69,"x_max":494,"o":"m 282 -11 q 124 50 178 -11 q 69 221 69 111 l 69 969 l 104 969 l 104 226 q 149 74 104 126 q 282 22 194 22 q 415 74 369 22 q 460 226 460 126 l 460 969 l 494 969 l 494 221 q 440 50 494 111 q 282 -11 386 -11 m 97 1135 l 464 1135 l 464 1104 l 97 1104 l 97 1135 z "},"Ų":{"ha":564,"x_min":69,"x_max":494,"o":"m 282 -11 q 124 50 178 -11 q 69 221 69 111 l 69 969 l 104 969 l 104 226 q 149 74 104 126 q 282 22 194 22 q 415 74 369 22 q 460 226 460 126 l 460 969 l 494 969 l 494 221 q 440 50 494 111 q 282 -11 386 -11 m 313 -228 q 240 -201 268 -228 q 213 -129 213 -174 q 249 -36 213 -78 q 343 21 286 6 l 360 0 q 305 -17 332 0 q 260 -63 278 -35 q 243 -125 243 -92 q 263 -179 243 -160 q 318 -199 283 -199 q 360 -192 340 -199 l 360 -219 q 313 -228 338 -228 z "},"Ů":{"ha":564,"x_min":69,"x_max":494,"o":"m 282 -11 q 124 50 178 -11 q 69 221 69 111 l 69 969 l 104 969 l 104 226 q 149 74 104 126 q 282 22 194 22 q 415 74 369 22 q 460 226 460 126 l 460 969 l 494 969 l 494 221 q 440 50 494 111 q 282 -11 386 -11 m 281 1058 q 193 1092 228 1058 q 158 1179 158 1126 q 193 1266 158 1232 q 281 1300 228 1300 q 368 1266 333 1300 q 403 1179 403 1232 q 368 1092 403 1126 q 281 1058 333 1058 m 281 1088 q 346 1113 321 1088 q 371 1179 371 1139 q 346 1245 371 1219 q 281 1271 321 1271 q 215 1245 240 1271 q 190 1179 190 1219 q 215 1113 190 1139 q 281 1088 240 1088 z "},"V":{"ha":492,"x_min":11,"x_max":481,"o":"m 11 969 l 47 969 l 246 65 l 249 65 l 446 969 l 481 969 l 267 0 l 225 0 l 11 969 z "},"W":{"ha":954,"x_min":28,"x_max":926,"o":"m 28 969 l 63 969 l 231 49 l 233 49 l 456 969 l 499 969 l 719 43 l 722 43 l 893 969 l 926 969 l 746 0 l 697 0 l 478 914 l 475 914 l 254 0 l 206 0 l 28 969 z "},"Ẃ":{"ha":954,"x_min":28,"x_max":926,"o":"m 28 969 l 63 969 l 231 49 l 233 49 l 456 969 l 499 969 l 719 43 l 722 43 l 893 969 l 926 969 l 746 0 l 697 0 l 478 914 l 475 914 l 254 0 l 206 0 l 28 969 m 568 1236 l 607 1236 l 482 1046 l 446 1046 l 568 1236 z "},"Ŵ":{"ha":954,"x_min":28,"x_max":926,"o":"m 28 969 l 63 969 l 231 49 l 233 49 l 456 969 l 499 969 l 719 43 l 722 43 l 893 969 l 926 969 l 746 0 l 697 0 l 478 914 l 475 914 l 254 0 l 206 0 l 28 969 m 460 1236 l 497 1236 l 644 1046 l 604 1046 l 479 1210 l 476 1210 l 351 1046 l 313 1046 l 460 1236 z "},"Ẅ":{"ha":954,"x_min":28,"x_max":926,"o":"m 28 969 l 63 969 l 231 49 l 233 49 l 456 969 l 499 969 l 719 43 l 722 43 l 893 969 l 926 969 l 746 0 l 697 0 l 478 914 l 475 914 l 254 0 l 206 0 l 28 969 m 353 1081 q 324 1092 336 1081 q 313 1121 313 1103 q 324 1150 313 1139 q 353 1161 336 1161 q 381 1150 369 1161 q 393 1121 393 1139 q 381 1092 393 1103 q 353 1081 369 1081 m 603 1081 q 574 1092 586 1081 q 563 1121 563 1103 q 574 1150 563 1139 q 603 1161 586 1161 q 631 1150 619 1161 q 643 1121 643 1139 q 631 1092 643 1103 q 603 1081 619 1081 z "},"Ẁ":{"ha":954,"x_min":28,"x_max":926,"o":"m 28 969 l 63 969 l 231 49 l 233 49 l 456 969 l 499 969 l 719 43 l 722 43 l 893 969 l 926 969 l 746 0 l 697 0 l 478 914 l 475 914 l 254 0 l 206 0 l 28 969 m 347 1236 l 388 1236 l 510 1046 l 472 1046 l 347 1236 z "},"X":{"ha":500,"x_min":14,"x_max":486,"o":"m 236 514 l 236 486 l 26 969 l 64 969 l 249 542 l 251 542 l 436 969 l 472 969 l 263 488 l 263 515 l 486 0 l 449 0 l 251 460 l 249 460 l 50 0 l 14 0 l 236 514 z "},"Y":{"ha":525,"x_min":28,"x_max":497,"o":"m 244 349 l 28 969 l 65 969 l 261 399 l 264 399 l 461 969 l 497 969 l 279 349 l 279 0 l 244 0 l 244 349 z "},"Ý":{"ha":525,"x_min":28,"x_max":497,"o":"m 244 349 l 28 969 l 65 969 l 261 399 l 264 399 l 461 969 l 497 969 l 279 349 l 279 0 l 244 0 l 244 349 m 353 1236 l 392 1236 l 267 1046 l 231 1046 l 353 1236 z "},"Ŷ":{"ha":525,"x_min":28,"x_max":497,"o":"m 244 349 l 28 969 l 65 969 l 261 399 l 264 399 l 461 969 l 497 969 l 279 349 l 279 0 l 244 0 l 244 349 m 244 1236 l 282 1236 l 429 1046 l 389 1046 l 264 1210 l 261 1210 l 136 1046 l 97 1046 l 244 1236 z "},"Ÿ":{"ha":525,"x_min":28,"x_max":497,"o":"m 244 349 l 28 969 l 65 969 l 261 399 l 264 399 l 461 969 l 497 969 l 279 349 l 279 0 l 244 0 l 244 349 m 138 1081 q 109 1092 121 1081 q 97 1121 97 1103 q 109 1150 97 1139 q 138 1161 121 1161 q 166 1150 154 1161 q 178 1121 178 1139 q 166 1092 178 1103 q 138 1081 154 1081 m 388 1081 q 359 1092 371 1081 q 347 1121 347 1103 q 359 1150 347 1139 q 388 1161 371 1161 q 416 1150 404 1161 q 428 1121 428 1139 q 416 1092 428 1103 q 388 1081 404 1081 z "},"Ỳ":{"ha":525,"x_min":28,"x_max":497,"o":"m 244 349 l 28 969 l 65 969 l 261 399 l 264 399 l 461 969 l 497 969 l 279 349 l 279 0 l 244 0 l 244 349 m 132 1236 l 172 1236 l 294 1046 l 257 1046 l 132 1236 z "},"Z":{"ha":471,"x_min":42,"x_max":435,"o":"m 42 28 l 392 950 l 401 936 l 63 936 l 63 969 l 425 969 l 425 942 l 75 19 l 65 33 l 435 33 l 435 0 l 42 0 l 42 28 z "},"Ź":{"ha":471,"x_min":42,"x_max":435,"o":"m 42 28 l 392 950 l 401 936 l 63 936 l 63 969 l 425 969 l 425 942 l 75 19 l 65 33 l 435 33 l 435 0 l 42 0 l 42 28 m 339 1236 l 378 1236 l 253 1046 l 217 1046 l 339 1236 z "},"Ž":{"ha":471,"x_min":42,"x_max":435,"o":"m 42 28 l 392 950 l 401 936 l 63 936 l 63 969 l 425 969 l 425 942 l 75 19 l 65 33 l 435 33 l 435 0 l 42 0 l 42 28 m 83 1228 l 124 1228 l 249 1064 l 251 1064 l 376 1228 l 415 1228 l 268 1038 l 231 1038 l 83 1228 z "},"Ż":{"ha":471,"x_min":42,"x_max":435,"o":"m 42 28 l 392 950 l 401 936 l 63 936 l 63 969 l 425 969 l 425 942 l 75 19 l 65 33 l 435 33 l 435 0 l 42 0 l 42 28 m 249 1082 q 219 1094 231 1082 q 207 1124 207 1106 q 219 1153 207 1142 q 249 1165 231 1165 q 278 1153 267 1165 q 290 1124 290 1142 q 278 1094 290 1106 q 249 1082 267 1082 z "},"a":{"ha":582,"x_min":44,"x_max":508,"o":"m 274 -7 q 108 58 172 -7 q 44 225 44 124 q 74 343 44 292 q 156 424 103 394 q 276 453 208 453 q 392 426 340 453 q 472 347 444 400 l 475 347 l 475 503 q 427 653 475 601 q 290 706 379 706 q 185 688 238 706 q 92 643 133 669 l 92 681 q 186 722 135 706 q 294 738 238 738 q 453 677 397 738 q 508 504 508 617 l 508 0 l 479 0 l 479 110 l 476 110 q 395 24 450 54 q 274 -7 340 -7 m 279 24 q 381 48 336 24 q 453 118 426 72 q 479 225 479 164 q 423 369 479 317 q 279 422 367 422 q 176 398 221 422 q 105 329 131 374 q 79 225 79 285 q 135 79 79 135 q 279 24 192 24 z "},"á":{"ha":582,"x_min":44,"x_max":508,"o":"m 274 -7 q 108 58 172 -7 q 44 225 44 124 q 74 343 44 292 q 156 424 103 394 q 276 453 208 453 q 392 426 340 453 q 472 347 444 400 l 475 347 l 475 503 q 427 653 475 601 q 290 706 379 706 q 185 688 238 706 q 92 643 133 669 l 92 681 q 186 722 135 706 q 294 738 238 738 q 453 677 397 738 q 508 504 508 617 l 508 0 l 479 0 l 479 110 l 476 110 q 395 24 450 54 q 274 -7 340 -7 m 279 24 q 381 48 336 24 q 453 118 426 72 q 479 225 479 164 q 423 369 479 317 q 279 422 367 422 q 176 398 221 422 q 105 329 131 374 q 79 225 79 285 q 135 79 79 135 q 279 24 192 24 m 383 997 l 422 997 l 297 807 l 261 807 l 383 997 z "},"ă":{"ha":582,"x_min":44,"x_max":508,"o":"m 274 -7 q 108 58 172 -7 q 44 225 44 124 q 74 343 44 292 q 156 424 103 394 q 276 453 208 453 q 392 426 340 453 q 472 347 444 400 l 475 347 l 475 503 q 427 653 475 601 q 290 706 379 706 q 185 688 238 706 q 92 643 133 669 l 92 681 q 186 722 135 706 q 294 738 238 738 q 453 677 397 738 q 508 504 508 617 l 508 0 l 479 0 l 479 110 l 476 110 q 395 24 450 54 q 274 -7 340 -7 m 279 24 q 381 48 336 24 q 453 118 426 72 q 479 225 479 164 q 423 369 479 317 q 279 422 367 422 q 176 398 221 422 q 105 329 131 374 q 79 225 79 285 q 135 79 79 135 q 279 24 192 24 m 293 815 q 186 852 228 815 q 140 954 144 889 l 171 954 q 209 876 176 904 q 293 847 242 847 q 377 876 344 847 q 415 954 410 904 l 446 954 q 400 852 442 889 q 293 815 358 815 z "},"â":{"ha":582,"x_min":44,"x_max":508,"o":"m 274 -7 q 108 58 172 -7 q 44 225 44 124 q 74 343 44 292 q 156 424 103 394 q 276 453 208 453 q 392 426 340 453 q 472 347 444 400 l 475 347 l 475 503 q 427 653 475 601 q 290 706 379 706 q 185 688 238 706 q 92 643 133 669 l 92 681 q 186 722 135 706 q 294 738 238 738 q 453 677 397 738 q 508 504 508 617 l 508 0 l 479 0 l 479 110 l 476 110 q 395 24 450 54 q 274 -7 340 -7 m 279 24 q 381 48 336 24 q 453 118 426 72 q 479 225 479 164 q 423 369 479 317 q 279 422 367 422 q 176 398 221 422 q 105 329 131 374 q 79 225 79 285 q 135 79 79 135 q 279 24 192 24 m 275 997 l 313 997 l 460 807 l 419 807 l 294 971 l 292 971 l 167 807 l 128 807 l 275 997 z "},"ä":{"ha":582,"x_min":44,"x_max":508,"o":"m 274 -7 q 108 58 172 -7 q 44 225 44 124 q 74 343 44 292 q 156 424 103 394 q 276 453 208 453 q 392 426 340 453 q 472 347 444 400 l 475 347 l 475 503 q 427 653 475 601 q 290 706 379 706 q 185 688 238 706 q 92 643 133 669 l 92 681 q 186 722 135 706 q 294 738 238 738 q 453 677 397 738 q 508 504 508 617 l 508 0 l 479 0 l 479 110 l 476 110 q 395 24 450 54 q 274 -7 340 -7 m 279 24 q 381 48 336 24 q 453 118 426 72 q 479 225 479 164 q 423 369 479 317 q 279 422 367 422 q 176 398 221 422 q 105 329 131 374 q 79 225 79 285 q 135 79 79 135 q 279 24 192 24 m 168 842 q 140 853 151 842 q 128 882 128 864 q 140 911 128 900 q 168 922 151 922 q 197 911 185 922 q 208 882 208 900 q 197 853 208 864 q 168 842 185 842 m 418 842 q 390 853 401 842 q 378 882 378 864 q 390 911 378 900 q 418 922 401 922 q 447 911 435 922 q 458 882 458 900 q 447 853 458 864 q 418 842 435 842 z "},"à":{"ha":582,"x_min":44,"x_max":508,"o":"m 274 -7 q 108 58 172 -7 q 44 225 44 124 q 74 343 44 292 q 156 424 103 394 q 276 453 208 453 q 392 426 340 453 q 472 347 444 400 l 475 347 l 475 503 q 427 653 475 601 q 290 706 379 706 q 185 688 238 706 q 92 643 133 669 l 92 681 q 186 722 135 706 q 294 738 238 738 q 453 677 397 738 q 508 504 508 617 l 508 0 l 479 0 l 479 110 l 476 110 q 395 24 450 54 q 274 -7 340 -7 m 279 24 q 381 48 336 24 q 453 118 426 72 q 479 225 479 164 q 423 369 479 317 q 279 422 367 422 q 176 398 221 422 q 105 329 131 374 q 79 225 79 285 q 135 79 79 135 q 279 24 192 24 m 163 997 l 203 997 l 325 807 l 288 807 l 163 997 z "},"ā":{"ha":582,"x_min":44,"x_max":508,"o":"m 274 -7 q 108 58 172 -7 q 44 225 44 124 q 74 343 44 292 q 156 424 103 394 q 276 453 208 453 q 392 426 340 453 q 472 347 444 400 l 475 347 l 475 503 q 427 653 475 601 q 290 706 379 706 q 185 688 238 706 q 92 643 133 669 l 92 681 q 186 722 135 706 q 294 738 238 738 q 453 677 397 738 q 508 504 508 617 l 508 0 l 479 0 l 479 110 l 476 110 q 395 24 450 54 q 274 -7 340 -7 m 279 24 q 381 48 336 24 q 453 118 426 72 q 479 225 479 164 q 423 369 479 317 q 279 422 367 422 q 176 398 221 422 q 105 329 131 374 q 79 225 79 285 q 135 79 79 135 q 279 24 192 24 m 110 896 l 476 896 l 476 865 l 110 865 l 110 896 z "},"ą":{"ha":582,"x_min":44,"x_max":508,"o":"m 274 -7 q 108 58 172 -7 q 44 225 44 124 q 74 343 44 292 q 156 424 103 394 q 276 453 208 453 q 392 426 340 453 q 472 347 444 400 l 475 347 l 475 503 q 427 653 475 601 q 290 706 379 706 q 185 688 238 706 q 92 643 133 669 l 92 681 q 186 722 135 706 q 294 738 238 738 q 453 677 397 738 q 508 504 508 617 l 508 0 l 479 0 l 479 110 l 476 110 q 395 24 450 54 q 274 -7 340 -7 m 279 24 q 381 48 336 24 q 453 118 426 72 q 479 225 479 164 q 423 369 479 317 q 279 422 367 422 q 176 398 221 422 q 105 329 131 374 q 79 225 79 285 q 135 79 79 135 q 279 24 192 24 m 461 -228 q 389 -201 417 -228 q 361 -129 361 -174 q 398 -36 361 -78 q 492 21 435 6 l 508 0 q 453 -17 481 0 q 409 -63 426 -35 q 392 -125 392 -92 q 412 -179 392 -160 q 467 -199 432 -199 q 508 -192 489 -199 l 508 -219 q 461 -228 486 -228 z "},"å":{"ha":582,"x_min":44,"x_max":508,"o":"m 274 -7 q 108 58 172 -7 q 44 225 44 124 q 74 343 44 292 q 156 424 103 394 q 276 453 208 453 q 392 426 340 453 q 472 347 444 400 l 475 347 l 475 503 q 427 653 475 601 q 290 706 379 706 q 185 688 238 706 q 92 643 133 669 l 92 681 q 186 722 135 706 q 294 738 238 738 q 453 677 397 738 q 508 504 508 617 l 508 0 l 479 0 l 479 110 l 476 110 q 395 24 450 54 q 274 -7 340 -7 m 279 24 q 381 48 336 24 q 453 118 426 72 q 479 225 479 164 q 423 369 479 317 q 279 422 367 422 q 176 398 221 422 q 105 329 131 374 q 79 225 79 285 q 135 79 79 135 q 279 24 192 24 m 293 819 q 206 853 240 819 q 171 940 171 888 q 206 1027 171 993 q 293 1061 240 1061 q 381 1027 346 1061 q 415 940 415 993 q 381 853 415 888 q 293 819 346 819 m 293 849 q 358 874 333 849 q 383 940 383 900 q 358 1006 383 981 q 293 1032 333 1032 q 228 1006 253 1032 q 203 940 203 981 q 228 874 203 900 q 293 849 253 849 z "},"ã":{"ha":582,"x_min":44,"x_max":508,"o":"m 274 -7 q 108 58 172 -7 q 44 225 44 124 q 74 343 44 292 q 156 424 103 394 q 276 453 208 453 q 392 426 340 453 q 472 347 444 400 l 475 347 l 475 503 q 427 653 475 601 q 290 706 379 706 q 185 688 238 706 q 92 643 133 669 l 92 681 q 186 722 135 706 q 294 738 238 738 q 453 677 397 738 q 508 504 508 617 l 508 0 l 479 0 l 479 110 l 476 110 q 395 24 450 54 q 274 -7 340 -7 m 279 24 q 381 48 336 24 q 453 118 426 72 q 479 225 479 164 q 423 369 479 317 q 279 422 367 422 q 176 398 221 422 q 105 329 131 374 q 79 225 79 285 q 135 79 79 135 q 279 24 192 24 m 388 817 q 337 827 358 817 q 283 858 315 838 q 238 887 257 878 q 196 896 218 896 q 149 878 167 896 q 131 824 132 860 l 100 824 q 127 899 100 871 q 199 926 154 926 q 249 916 228 926 q 303 885 271 906 q 349 856 329 865 q 390 847 368 847 q 437 865 419 847 q 456 919 454 883 l 486 919 q 459 844 486 872 q 388 817 432 817 z "},"æ":{"ha":1151,"x_min":44,"x_max":1126,"o":"m 828 -7 q 638 44 724 -7 q 513 194 553 94 l 510 194 q 436 49 503 106 q 276 -7 369 -7 q 109 58 174 -7 q 44 225 44 124 q 74 343 44 292 q 156 424 103 394 q 276 453 208 453 q 392 426 340 453 q 472 347 444 400 l 475 347 l 475 503 q 427 653 475 601 q 290 706 379 706 q 185 688 238 706 q 92 643 133 669 l 92 679 q 186 721 135 704 q 294 738 238 738 q 445 685 390 738 q 507 535 500 633 l 510 535 q 627 683 547 629 q 814 738 707 738 q 984 690 913 738 q 1091 559 1056 643 q 1121 368 1126 475 l 493 368 l 493 400 l 1108 400 l 1088 386 q 1054 556 1088 483 q 959 667 1021 628 q 814 706 897 706 q 658 663 728 706 q 549 544 589 621 q 510 365 510 467 q 551 185 510 263 q 667 67 593 108 q 832 25 740 25 q 948 42 889 25 q 1054 94 1007 58 l 1054 56 q 945 8 1004 24 q 828 -7 886 -7 m 279 24 q 381 48 336 24 q 453 118 426 72 q 479 225 479 164 q 423 369 479 317 q 279 422 367 422 q 176 398 221 422 q 105 329 131 374 q 79 225 79 285 q 135 79 79 135 q 279 24 192 24 z "},"b":{"ha":786,"x_min":76,"x_max":753,"o":"m 415 -7 q 219 55 299 -7 q 110 224 139 117 l 107 224 l 107 0 l 76 0 l 76 989 l 110 989 l 110 515 l 113 515 q 222 678 142 618 q 415 738 301 738 q 594 690 518 738 q 712 558 671 642 q 753 365 753 474 q 712 173 753 257 q 594 41 671 89 q 415 -7 518 -7 m 415 25 q 573 67 504 25 q 680 187 642 110 q 718 365 718 264 q 680 544 718 467 q 573 663 642 621 q 415 706 504 706 q 257 663 326 706 q 149 543 188 621 q 110 365 110 465 q 149 188 110 265 q 257 67 188 110 q 415 25 326 25 z "},"c":{"ha":579,"x_min":32,"x_max":563,"o":"m 390 -7 q 205 40 286 -7 q 78 172 124 88 q 32 365 32 257 q 78 558 32 474 q 205 690 124 643 q 390 738 286 738 q 563 703 482 738 l 563 664 q 390 706 486 706 q 226 663 300 706 q 109 544 151 621 q 67 365 67 467 q 109 187 67 264 q 226 67 151 110 q 390 25 300 25 q 563 67 486 25 l 563 28 q 390 -7 482 -7 z "},"ć":{"ha":579,"x_min":32,"x_max":563,"o":"m 390 -7 q 205 40 286 -7 q 78 172 124 88 q 32 365 32 257 q 78 558 32 474 q 205 690 124 643 q 390 738 286 738 q 563 703 482 738 l 563 664 q 390 706 486 706 q 226 663 300 706 q 109 544 151 621 q 67 365 67 467 q 109 187 67 264 q 226 67 151 110 q 390 25 300 25 q 563 67 486 25 l 563 28 q 390 -7 482 -7 m 451 997 l 490 997 l 365 807 l 329 807 l 451 997 z "},"č":{"ha":579,"x_min":32,"x_max":563,"o":"m 390 -7 q 205 40 286 -7 q 78 172 124 88 q 32 365 32 257 q 78 558 32 474 q 205 690 124 643 q 390 738 286 738 q 563 703 482 738 l 563 664 q 390 706 486 706 q 226 663 300 706 q 109 544 151 621 q 67 365 67 467 q 109 187 67 264 q 226 67 151 110 q 390 25 300 25 q 563 67 486 25 l 563 28 q 390 -7 482 -7 m 196 989 l 236 989 l 361 825 l 364 825 l 489 989 l 528 989 l 381 799 l 343 799 l 196 989 z "},"ç":{"ha":579,"x_min":32,"x_max":563,"o":"m 390 -7 q 205 40 286 -7 q 78 172 124 88 q 32 365 32 257 q 78 558 32 474 q 205 690 124 643 q 390 738 286 738 q 563 703 482 738 l 563 664 q 390 706 486 706 q 226 663 300 706 q 109 544 151 621 q 67 365 67 467 q 109 187 67 264 q 226 67 151 110 q 390 25 300 25 q 563 67 486 25 l 563 28 q 390 -7 482 -7 m 232 -203 l 335 22 l 364 11 l 264 -215 l 232 -203 z "},"d":{"ha":786,"x_min":33,"x_max":710,"o":"m 371 -7 q 192 41 268 -7 q 74 173 115 89 q 33 365 33 257 q 74 558 33 474 q 192 690 115 642 q 371 738 268 738 q 565 678 485 738 q 674 515 644 618 l 676 515 l 676 989 l 710 989 l 710 0 l 679 0 l 679 224 l 676 224 q 567 55 647 117 q 371 -7 488 -7 m 371 25 q 529 67 460 25 q 638 188 599 110 q 676 365 676 265 q 638 543 676 465 q 529 663 599 621 q 371 706 460 706 q 213 663 282 706 q 106 544 144 621 q 68 365 68 467 q 106 187 68 264 q 213 67 144 110 q 371 25 282 25 z "},"ð":{"ha":786,"x_min":35,"x_max":746,"o":"m 390 -7 q 206 40 286 -7 q 80 170 125 88 q 35 356 35 253 q 80 541 35 458 q 206 671 125 624 q 389 718 286 718 q 528 691 465 718 q 640 610 590 664 l 643 611 q 487 807 583 713 q 261 989 390 901 l 317 989 q 507 831 414 922 q 661 638 600 740 q 724 500 701 569 q 746 358 746 431 q 701 171 746 254 q 575 40 656 88 q 390 -7 494 -7 m 390 25 q 554 67 481 25 q 669 183 628 108 q 711 356 711 258 q 669 528 711 453 q 554 644 628 603 q 390 686 481 686 q 226 644 300 686 q 111 528 153 603 q 69 356 69 453 q 111 183 69 258 q 226 67 153 108 q 390 25 300 25 m 164 840 l 646 940 l 653 910 l 171 810 l 164 840 z "},"ď":{"ha":786,"x_min":33,"x_max":849,"o":"m 371 -7 q 192 41 268 -7 q 74 173 115 89 q 33 365 33 257 q 74 558 33 474 q 192 690 115 642 q 371 738 268 738 q 565 678 485 738 q 674 515 644 618 l 676 515 l 676 989 l 710 989 l 710 0 l 679 0 l 679 224 l 676 224 q 567 55 647 117 q 371 -7 488 -7 m 371 25 q 529 67 460 25 q 638 188 599 110 q 676 365 676 265 q 638 543 676 465 q 529 663 599 621 q 371 706 460 706 q 213 663 282 706 q 106 544 144 621 q 68 365 68 467 q 106 187 68 264 q 213 67 144 110 q 371 25 282 25 m 815 1076 l 849 1076 l 819 804 l 788 804 l 815 1076 z "},"đ":{"ha":833,"x_min":33,"x_max":814,"o":"m 432 889 l 814 889 l 814 857 l 432 857 l 432 889 m 371 -7 q 192 41 268 -7 q 74 173 115 89 q 33 365 33 257 q 74 558 33 474 q 192 690 115 642 q 371 738 268 738 q 565 678 485 738 q 674 515 644 618 l 676 515 l 676 989 l 710 989 l 710 0 l 679 0 l 679 224 l 676 224 q 567 55 647 117 q 371 -7 488 -7 m 371 25 q 529 67 460 25 q 638 188 599 110 q 676 365 676 265 q 638 543 676 465 q 529 663 599 621 q 371 706 460 706 q 213 663 282 706 q 106 544 144 621 q 68 365 68 467 q 106 187 68 264 q 213 67 144 110 q 371 25 282 25 z "},"e":{"ha":708,"x_min":32,"x_max":683,"o":"m 385 -7 q 201 40 282 -7 q 76 172 121 88 q 32 365 32 256 q 75 558 32 474 q 194 690 118 643 q 371 738 271 738 q 541 690 469 738 q 648 559 613 643 q 678 368 683 475 l 50 368 l 50 400 l 665 400 l 644 386 q 611 556 644 483 q 516 667 578 628 q 371 706 454 706 q 215 663 285 706 q 106 544 146 621 q 67 365 67 467 q 108 185 67 263 q 224 67 150 108 q 389 25 297 25 q 505 42 446 25 q 611 94 564 58 l 611 56 q 502 8 561 24 q 385 -7 443 -7 z "},"é":{"ha":708,"x_min":32,"x_max":683,"o":"m 385 -7 q 201 40 282 -7 q 76 172 121 88 q 32 365 32 256 q 75 558 32 474 q 194 690 118 643 q 371 738 271 738 q 541 690 469 738 q 648 559 613 643 q 678 368 683 475 l 50 368 l 50 400 l 665 400 l 644 386 q 611 556 644 483 q 516 667 578 628 q 371 706 454 706 q 215 663 285 706 q 106 544 146 621 q 67 365 67 467 q 108 185 67 263 q 224 67 150 108 q 389 25 297 25 q 505 42 446 25 q 611 94 564 58 l 611 56 q 502 8 561 24 q 385 -7 443 -7 m 453 997 l 492 997 l 367 807 l 331 807 l 453 997 z "},"ě":{"ha":708,"x_min":32,"x_max":683,"o":"m 385 -7 q 201 40 282 -7 q 76 172 121 88 q 32 365 32 256 q 75 558 32 474 q 194 690 118 643 q 371 738 271 738 q 541 690 469 738 q 648 559 613 643 q 678 368 683 475 l 50 368 l 50 400 l 665 400 l 644 386 q 611 556 644 483 q 516 667 578 628 q 371 706 454 706 q 215 663 285 706 q 106 544 146 621 q 67 365 67 467 q 108 185 67 263 q 224 67 150 108 q 389 25 297 25 q 505 42 446 25 q 611 94 564 58 l 611 56 q 502 8 561 24 q 385 -7 443 -7 m 197 989 l 238 989 l 363 825 l 365 825 l 490 989 l 529 989 l 382 799 l 344 799 l 197 989 z "},"ê":{"ha":708,"x_min":32,"x_max":683,"o":"m 385 -7 q 201 40 282 -7 q 76 172 121 88 q 32 365 32 256 q 75 558 32 474 q 194 690 118 643 q 371 738 271 738 q 541 690 469 738 q 648 559 613 643 q 678 368 683 475 l 50 368 l 50 400 l 665 400 l 644 386 q 611 556 644 483 q 516 667 578 628 q 371 706 454 706 q 215 663 285 706 q 106 544 146 621 q 67 365 67 467 q 108 185 67 263 q 224 67 150 108 q 389 25 297 25 q 505 42 446 25 q 611 94 564 58 l 611 56 q 502 8 561 24 q 385 -7 443 -7 m 344 997 l 382 997 l 529 807 l 489 807 l 364 971 l 361 971 l 236 807 l 197 807 l 344 997 z "},"ë":{"ha":708,"x_min":32,"x_max":683,"o":"m 385 -7 q 201 40 282 -7 q 76 172 121 88 q 32 365 32 256 q 75 558 32 474 q 194 690 118 643 q 371 738 271 738 q 541 690 469 738 q 648 559 613 643 q 678 368 683 475 l 50 368 l 50 400 l 665 400 l 644 386 q 611 556 644 483 q 516 667 578 628 q 371 706 454 706 q 215 663 285 706 q 106 544 146 621 q 67 365 67 467 q 108 185 67 263 q 224 67 150 108 q 389 25 297 25 q 505 42 446 25 q 611 94 564 58 l 611 56 q 502 8 561 24 q 385 -7 443 -7 m 238 842 q 209 853 221 842 q 197 882 197 864 q 209 911 197 900 q 238 922 221 922 q 266 911 254 922 q 278 882 278 900 q 266 853 278 864 q 238 842 254 842 m 488 842 q 459 853 471 842 q 447 882 447 864 q 459 911 447 900 q 488 922 471 922 q 516 911 504 922 q 528 882 528 900 q 516 853 528 864 q 488 842 504 842 z "},"ė":{"ha":708,"x_min":32,"x_max":683,"o":"m 385 -7 q 201 40 282 -7 q 76 172 121 88 q 32 365 32 256 q 75 558 32 474 q 194 690 118 643 q 371 738 271 738 q 541 690 469 738 q 648 559 613 643 q 678 368 683 475 l 50 368 l 50 400 l 665 400 l 644 386 q 611 556 644 483 q 516 667 578 628 q 371 706 454 706 q 215 663 285 706 q 106 544 146 621 q 67 365 67 467 q 108 185 67 263 q 224 67 150 108 q 389 25 297 25 q 505 42 446 25 q 611 94 564 58 l 611 56 q 502 8 561 24 q 385 -7 443 -7 m 363 843 q 333 855 344 843 q 321 885 321 867 q 333 915 321 903 q 363 926 344 926 q 392 915 381 926 q 404 885 404 903 q 392 855 404 867 q 363 843 381 843 z "},"è":{"ha":708,"x_min":32,"x_max":683,"o":"m 385 -7 q 201 40 282 -7 q 76 172 121 88 q 32 365 32 256 q 75 558 32 474 q 194 690 118 643 q 371 738 271 738 q 541 690 469 738 q 648 559 613 643 q 678 368 683 475 l 50 368 l 50 400 l 665 400 l 644 386 q 611 556 644 483 q 516 667 578 628 q 371 706 454 706 q 215 663 285 706 q 106 544 146 621 q 67 365 67 467 q 108 185 67 263 q 224 67 150 108 q 389 25 297 25 q 505 42 446 25 q 611 94 564 58 l 611 56 q 502 8 561 24 q 385 -7 443 -7 m 232 997 l 272 997 l 394 807 l 357 807 l 232 997 z "},"ē":{"ha":708,"x_min":32,"x_max":683,"o":"m 385 -7 q 201 40 282 -7 q 76 172 121 88 q 32 365 32 256 q 75 558 32 474 q 194 690 118 643 q 371 738 271 738 q 541 690 469 738 q 648 559 613 643 q 678 368 683 475 l 50 368 l 50 400 l 665 400 l 644 386 q 611 556 644 483 q 516 667 578 628 q 371 706 454 706 q 215 663 285 706 q 106 544 146 621 q 67 365 67 467 q 108 185 67 263 q 224 67 150 108 q 389 25 297 25 q 505 42 446 25 q 611 94 564 58 l 611 56 q 502 8 561 24 q 385 -7 443 -7 m 179 896 l 546 896 l 546 865 l 179 865 l 179 896 z "},"ę":{"ha":708,"x_min":32,"x_max":683,"o":"m 385 -7 q 201 40 282 -7 q 76 172 121 88 q 32 365 32 256 q 75 558 32 474 q 194 690 118 643 q 371 738 271 738 q 541 690 469 738 q 648 559 613 643 q 678 368 683 475 l 50 368 l 50 400 l 665 400 l 644 386 q 611 556 644 483 q 516 667 578 628 q 371 706 454 706 q 215 663 285 706 q 106 544 146 621 q 67 365 67 467 q 108 185 67 263 q 224 67 150 108 q 389 25 297 25 q 505 42 446 25 q 611 94 564 58 l 611 56 q 502 8 561 24 q 385 -7 443 -7 m 414 -228 q 342 -201 369 -228 q 314 -129 314 -174 q 351 -36 314 -78 q 444 21 388 6 l 461 0 q 406 -17 433 0 q 362 -63 379 -35 q 344 -125 344 -92 q 365 -179 344 -160 q 419 -199 385 -199 q 461 -192 442 -199 l 461 -219 q 414 -228 439 -228 z "},"f":{"ha":335,"x_min":14,"x_max":346,"o":"m 94 811 q 136 957 94 910 q 258 1004 178 1004 q 346 989 304 1004 l 346 953 q 258 972 307 972 q 159 934 190 972 q 128 810 128 896 l 128 0 l 94 0 l 94 811 m 14 731 l 318 731 l 318 699 l 14 699 l 14 731 z "},"g":{"ha":783,"x_min":33,"x_max":710,"o":"m 381 -194 q 110 -125 232 -194 l 110 -82 q 236 -141 167 -119 q 383 -162 306 -162 q 593 -97 510 -162 q 676 121 676 -32 l 676 238 l 674 238 q 565 89 644 143 q 371 35 485 35 q 190 78 267 35 q 74 202 114 122 q 33 385 33 282 q 74 569 33 489 q 190 693 114 649 q 371 738 267 738 q 567 678 488 738 q 676 518 647 619 l 679 518 l 679 731 l 710 731 l 710 122 q 667 -60 710 11 q 550 -162 624 -131 q 381 -194 476 -194 m 371 67 q 529 106 460 67 q 638 218 599 146 q 676 385 676 290 q 638 552 676 479 q 529 665 599 625 q 371 706 460 706 q 213 666 281 706 q 106 554 144 626 q 68 385 68 482 q 106 216 68 288 q 213 106 144 144 q 371 67 281 67 z "},"ģ":{"ha":783,"x_min":33,"x_max":710,"o":"m 381 -194 q 110 -125 232 -194 l 110 -82 q 236 -141 167 -119 q 383 -162 306 -162 q 593 -97 510 -162 q 676 121 676 -32 l 676 238 l 674 238 q 565 89 644 143 q 371 35 485 35 q 190 78 267 35 q 74 202 114 122 q 33 385 33 282 q 74 569 33 489 q 190 693 114 649 q 371 738 267 738 q 567 678 488 738 q 676 518 647 619 l 679 518 l 679 731 l 710 731 l 710 122 q 667 -60 710 11 q 550 -162 624 -131 q 381 -194 476 -194 m 371 67 q 529 106 460 67 q 638 218 599 146 q 676 385 676 290 q 638 552 676 479 q 529 665 599 625 q 371 706 460 706 q 213 666 281 706 q 106 554 144 626 q 68 385 68 482 q 106 216 68 288 q 213 106 144 144 q 371 67 281 67 m 410 997 l 440 997 l 388 807 l 353 807 l 410 997 z "},"h":{"ha":621,"x_min":76,"x_max":547,"o":"m 76 989 l 110 989 l 110 596 l 113 596 q 194 700 138 663 q 326 738 251 738 q 444 707 394 738 q 521 621 494 676 q 547 490 547 565 l 547 0 l 514 0 l 514 489 q 463 647 514 588 q 322 707 411 707 q 168 641 226 707 q 110 471 110 575 l 110 0 l 76 0 l 76 989 z "},"i":{"ha":194,"x_min":56,"x_max":139,"o":"m 81 731 l 114 731 l 114 0 l 81 0 l 81 731 m 97 843 q 67 855 79 843 q 56 885 56 867 q 67 915 56 903 q 97 926 79 926 q 127 915 115 926 q 139 885 139 903 q 127 855 139 867 q 97 843 115 843 z "},"ı":{"ha":194,"x_min":81,"x_max":114,"o":"m 81 731 l 114 731 l 114 0 l 81 0 l 81 731 z "},"í":{"ha":194,"x_min":65,"x_max":226,"o":"m 81 731 l 114 731 l 114 0 l 81 0 l 81 731 m 188 997 l 226 997 l 101 807 l 65 807 l 188 997 z "},"î":{"ha":194,"x_min":-68,"x_max":264,"o":"m 81 731 l 114 731 l 114 0 l 81 0 l 81 731 m 79 997 l 117 997 l 264 807 l 224 807 l 99 971 l 96 971 l -29 807 l -68 807 l 79 997 z "},"ï":{"ha":194,"x_min":-68,"x_max":263,"o":"m 81 731 l 114 731 l 114 0 l 81 0 l 81 731 m -28 842 q -56 853 -44 842 q -68 882 -68 864 q -56 911 -68 900 q -28 922 -44 922 q 1 911 -11 922 q 13 882 13 900 q 1 853 13 864 q -28 842 -11 842 m 222 842 q 194 853 206 842 q 182 882 182 864 q 194 911 182 900 q 222 922 206 922 q 251 911 239 922 q 263 882 263 900 q 251 853 263 864 q 222 842 239 842 z "},"ì":{"ha":194,"x_min":-33,"x_max":129,"o":"m 81 731 l 114 731 l 114 0 l 81 0 l 81 731 m -33 997 l 7 997 l 129 807 l 92 807 l -33 997 z "},"ĳ":{"ha":389,"x_min":56,"x_max":333,"o":"m 81 731 l 114 731 l 114 0 l 81 0 l 81 731 m 97 843 q 67 855 79 843 q 56 885 56 867 q 67 915 56 903 q 97 926 79 926 q 127 915 115 926 q 139 885 139 903 q 127 855 139 867 q 97 843 115 843 z "},"ī":{"ha":194,"x_min":-86,"x_max":281,"o":"m 81 731 l 114 731 l 114 0 l 81 0 l 81 731 m -86 896 l 281 896 l 281 865 l -86 865 l -86 896 z "},"į":{"ha":194,"x_min":-33,"x_max":139,"o":"m 81 731 l 114 731 l 114 0 l 81 0 l 81 731 m 97 843 q 67 855 79 843 q 56 885 56 867 q 67 915 56 903 q 97 926 79 926 q 127 915 115 926 q 139 885 139 903 q 127 855 139 867 q 97 843 115 843 m 67 -228 q -6 -201 22 -228 q -33 -129 -33 -174 q 3 -36 -33 -78 q 97 21 40 6 l 114 0 q 59 -17 86 0 q 15 -63 32 -35 q -3 -125 -3 -92 q 17 -179 -3 -160 q 72 -199 38 -199 q 114 -192 94 -199 l 114 -219 q 67 -228 92 -228 z "},"j":{"ha":194,"x_min":-75,"x_max":139,"o":"m 1 -194 q -75 -181 -33 -194 l -75 -144 q 0 -162 -36 -162 q 60 -140 40 -162 q 81 -74 81 -118 l 81 731 l 114 731 l 114 -75 q 85 -164 114 -133 q 1 -194 56 -194 m 97 843 q 67 855 79 843 q 56 885 56 867 q 67 915 56 903 q 97 926 79 926 q 127 915 115 926 q 139 885 139 903 q 127 855 139 867 q 97 843 115 843 z "},"ȷ":{"ha":194,"x_min":-75,"x_max":114,"o":"m 1 -194 q -75 -181 -33 -194 l -75 -144 q 0 -162 -36 -162 q 60 -140 40 -162 q 81 -74 81 -118 l 81 731 l 114 731 l 114 -75 q 85 -164 114 -133 q 1 -194 56 -194 z "},"k":{"ha":556,"x_min":76,"x_max":511,"o":"m 76 989 l 110 989 l 110 408 l 113 408 l 460 731 l 511 731 l 146 396 l 140 406 l 231 406 q 428 339 365 406 q 492 133 492 272 l 492 0 l 458 0 l 458 132 q 406 315 458 256 q 236 374 353 374 l 96 374 l 110 388 l 110 0 l 76 0 l 76 989 z "},"ķ":{"ha":556,"x_min":76,"x_max":511,"o":"m 76 989 l 110 989 l 110 408 l 113 408 l 460 731 l 511 731 l 146 396 l 140 406 l 231 406 q 428 339 365 406 q 492 133 492 272 l 492 0 l 458 0 l 458 132 q 406 315 458 256 q 236 374 353 374 l 96 374 l 110 388 l 110 0 l 76 0 l 76 989 m 257 -69 l 292 -69 l 239 -243 l 208 -243 l 257 -69 z "},"l":{"ha":186,"x_min":76,"x_max":110,"o":"m 76 989 l 110 989 l 110 0 l 76 0 l 76 989 z "},"ĺ":{"ha":186,"x_min":61,"x_max":222,"o":"m 76 989 l 110 989 l 110 0 l 76 0 l 76 989 m 183 1256 l 222 1256 l 97 1065 l 61 1065 l 183 1256 z "},"ľ":{"ha":186,"x_min":76,"x_max":249,"o":"m 76 989 l 110 989 l 110 0 l 76 0 l 76 989 m 215 1076 l 249 1076 l 219 804 l 188 804 l 215 1076 z "},"ļ":{"ha":186,"x_min":29,"x_max":113,"o":"m 76 989 l 110 989 l 110 0 l 76 0 l 76 989 m 78 -69 l 113 -69 l 60 -243 l 29 -243 l 78 -69 z "},"ł":{"ha":322,"x_min":22,"x_max":300,"o":"m 144 989 l 178 989 l 178 0 l 144 0 l 144 989 m 22 503 l 300 638 l 300 603 l 22 468 l 22 503 z "},"m":{"ha":1017,"x_min":76,"x_max":943,"o":"m 76 731 l 107 731 l 107 593 l 110 593 q 190 699 135 660 q 315 738 244 738 q 444 695 393 738 q 515 576 496 653 l 518 576 q 598 694 540 651 q 732 738 656 738 q 886 670 829 738 q 943 490 943 603 l 943 0 l 910 0 l 910 489 q 860 647 910 588 q 728 707 811 707 q 582 641 638 707 q 526 471 526 575 l 526 0 l 493 0 l 493 489 q 444 647 493 588 q 311 707 394 707 q 165 641 221 707 q 110 471 110 575 l 110 0 l 76 0 l 76 731 z "},"n":{"ha":621,"x_min":76,"x_max":547,"o":"m 76 731 l 107 731 l 107 592 l 110 592 q 193 699 136 660 q 326 738 250 738 q 444 707 394 738 q 521 621 494 676 q 547 490 547 565 l 547 0 l 514 0 l 514 489 q 463 647 514 588 q 322 707 411 707 q 169 641 228 707 q 110 471 110 575 l 110 0 l 76 0 l 76 731 z "},"ń":{"ha":621,"x_min":76,"x_max":547,"o":"m 76 731 l 107 731 l 107 592 l 110 592 q 193 699 136 660 q 326 738 250 738 q 444 707 394 738 q 521 621 494 676 q 547 490 547 565 l 547 0 l 514 0 l 514 489 q 463 647 514 588 q 322 707 411 707 q 169 641 228 707 q 110 471 110 575 l 110 0 l 76 0 l 76 731 m 406 997 l 444 997 l 319 807 l 283 807 l 406 997 z "},"ň":{"ha":621,"x_min":76,"x_max":547,"o":"m 76 731 l 107 731 l 107 592 l 110 592 q 193 699 136 660 q 326 738 250 738 q 444 707 394 738 q 521 621 494 676 q 547 490 547 565 l 547 0 l 514 0 l 514 489 q 463 647 514 588 q 322 707 411 707 q 169 641 228 707 q 110 471 110 575 l 110 0 l 76 0 l 76 731 m 150 989 l 190 989 l 315 825 l 318 825 l 443 989 l 482 989 l 335 799 l 297 799 l 150 989 z "},"ņ":{"ha":621,"x_min":76,"x_max":547,"o":"m 76 731 l 107 731 l 107 592 l 110 592 q 193 699 136 660 q 326 738 250 738 q 444 707 394 738 q 521 621 494 676 q 547 490 547 565 l 547 0 l 514 0 l 514 489 q 463 647 514 588 q 322 707 411 707 q 169 641 228 707 q 110 471 110 575 l 110 0 l 76 0 l 76 731 m 306 -69 l 340 -69 l 288 -243 l 257 -243 l 306 -69 z "},"ñ":{"ha":621,"x_min":76,"x_max":547,"o":"m 76 731 l 107 731 l 107 592 l 110 592 q 193 699 136 660 q 326 738 250 738 q 444 707 394 738 q 521 621 494 676 q 547 490 547 565 l 547 0 l 514 0 l 514 489 q 463 647 514 588 q 322 707 411 707 q 169 641 228 707 q 110 471 110 575 l 110 0 l 76 0 l 76 731 m 410 817 q 359 827 381 817 q 306 858 338 838 q 260 887 279 878 q 218 896 240 896 q 172 878 189 896 q 153 824 154 860 l 122 824 q 149 899 122 871 q 221 926 176 926 q 272 916 250 926 q 325 885 293 906 q 371 856 351 865 q 413 847 390 847 q 459 865 442 847 q 478 919 476 883 l 508 919 q 481 844 508 872 q 410 817 454 817 z "},"ŋ":{"ha":621,"x_min":76,"x_max":547,"o":"m 435 -194 q 358 -181 400 -194 l 358 -144 q 433 -162 397 -162 q 494 -140 474 -162 q 514 -74 514 -118 l 514 489 q 463 647 514 588 q 322 707 411 707 q 169 641 228 707 q 110 471 110 575 l 110 0 l 76 0 l 76 731 l 107 731 l 107 592 l 110 592 q 193 699 136 660 q 326 738 250 738 q 444 707 394 738 q 521 621 494 676 q 547 490 547 565 l 547 -75 q 518 -164 547 -133 q 435 -194 489 -194 z "},"o":{"ha":781,"x_min":32,"x_max":749,"o":"m 390 -7 q 205 40 286 -7 q 78 172 124 88 q 32 365 32 257 q 78 558 32 474 q 205 690 124 643 q 390 738 286 738 q 576 690 494 738 q 703 558 657 643 q 749 365 749 474 q 703 172 749 257 q 576 40 657 88 q 390 -7 494 -7 m 390 25 q 555 67 481 25 q 672 187 629 110 q 714 365 714 264 q 672 544 714 467 q 555 663 629 621 q 390 706 481 706 q 226 663 300 706 q 109 544 151 621 q 67 365 67 467 q 109 187 67 264 q 226 67 151 110 q 390 25 300 25 z "},"ó":{"ha":781,"x_min":32,"x_max":749,"o":"m 390 -7 q 205 40 286 -7 q 78 172 124 88 q 32 365 32 257 q 78 558 32 474 q 205 690 124 643 q 390 738 286 738 q 576 690 494 738 q 703 558 657 643 q 749 365 749 474 q 703 172 749 257 q 576 40 657 88 q 390 -7 494 -7 m 390 25 q 555 67 481 25 q 672 187 629 110 q 714 365 714 264 q 672 544 714 467 q 555 663 629 621 q 390 706 481 706 q 226 663 300 706 q 109 544 151 621 q 67 365 67 467 q 109 187 67 264 q 226 67 151 110 q 390 25 300 25 m 481 997 l 519 997 l 394 807 l 358 807 l 481 997 z "},"ô":{"ha":781,"x_min":32,"x_max":749,"o":"m 390 -7 q 205 40 286 -7 q 78 172 124 88 q 32 365 32 257 q 78 558 32 474 q 205 690 124 643 q 390 738 286 738 q 576 690 494 738 q 703 558 657 643 q 749 365 749 474 q 703 172 749 257 q 576 40 657 88 q 390 -7 494 -7 m 390 25 q 555 67 481 25 q 672 187 629 110 q 714 365 714 264 q 672 544 714 467 q 555 663 629 621 q 390 706 481 706 q 226 663 300 706 q 109 544 151 621 q 67 365 67 467 q 109 187 67 264 q 226 67 151 110 q 390 25 300 25 m 372 997 l 410 997 l 557 807 l 517 807 l 392 971 l 389 971 l 264 807 l 225 807 l 372 997 z "},"ö":{"ha":781,"x_min":32,"x_max":749,"o":"m 390 -7 q 205 40 286 -7 q 78 172 124 88 q 32 365 32 257 q 78 558 32 474 q 205 690 124 643 q 390 738 286 738 q 576 690 494 738 q 703 558 657 643 q 749 365 749 474 q 703 172 749 257 q 576 40 657 88 q 390 -7 494 -7 m 390 25 q 555 67 481 25 q 672 187 629 110 q 714 365 714 264 q 672 544 714 467 q 555 663 629 621 q 390 706 481 706 q 226 663 300 706 q 109 544 151 621 q 67 365 67 467 q 109 187 67 264 q 226 67 151 110 q 390 25 300 25 m 265 842 q 237 853 249 842 q 225 882 225 864 q 237 911 225 900 q 265 922 249 922 q 294 911 282 922 q 306 882 306 900 q 294 853 306 864 q 265 842 282 842 m 515 842 q 487 853 499 842 q 475 882 475 864 q 487 911 475 900 q 515 922 499 922 q 544 911 532 922 q 556 882 556 900 q 544 853 556 864 q 515 842 532 842 z "},"ò":{"ha":781,"x_min":32,"x_max":749,"o":"m 390 -7 q 205 40 286 -7 q 78 172 124 88 q 32 365 32 257 q 78 558 32 474 q 205 690 124 643 q 390 738 286 738 q 576 690 494 738 q 703 558 657 643 q 749 365 749 474 q 703 172 749 257 q 576 40 657 88 q 390 -7 494 -7 m 390 25 q 555 67 481 25 q 672 187 629 110 q 714 365 714 264 q 672 544 714 467 q 555 663 629 621 q 390 706 481 706 q 226 663 300 706 q 109 544 151 621 q 67 365 67 467 q 109 187 67 264 q 226 67 151 110 q 390 25 300 25 m 260 997 l 300 997 l 422 807 l 385 807 l 260 997 z "},"ő":{"ha":781,"x_min":32,"x_max":749,"o":"m 390 -7 q 205 40 286 -7 q 78 172 124 88 q 32 365 32 257 q 78 558 32 474 q 205 690 124 643 q 390 738 286 738 q 576 690 494 738 q 703 558 657 643 q 749 365 749 474 q 703 172 749 257 q 576 40 657 88 q 390 -7 494 -7 m 390 25 q 555 67 481 25 q 672 187 629 110 q 714 365 714 264 q 672 544 714 467 q 555 663 629 621 q 390 706 481 706 q 226 663 300 706 q 109 544 151 621 q 67 365 67 467 q 109 187 67 264 q 226 67 151 110 q 390 25 300 25 m 353 997 l 389 997 l 315 807 l 283 807 l 353 997 m 547 997 l 583 997 l 497 807 l 464 807 l 547 997 z "},"ō":{"ha":781,"x_min":32,"x_max":749,"o":"m 390 -7 q 205 40 286 -7 q 78 172 124 88 q 32 365 32 257 q 78 558 32 474 q 205 690 124 643 q 390 738 286 738 q 576 690 494 738 q 703 558 657 643 q 749 365 749 474 q 703 172 749 257 q 576 40 657 88 q 390 -7 494 -7 m 390 25 q 555 67 481 25 q 672 187 629 110 q 714 365 714 264 q 672 544 714 467 q 555 663 629 621 q 390 706 481 706 q 226 663 300 706 q 109 544 151 621 q 67 365 67 467 q 109 187 67 264 q 226 67 151 110 q 390 25 300 25 m 207 896 l 574 896 l 574 865 l 207 865 l 207 896 z "},"ø":{"ha":781,"x_min":32,"x_max":749,"o":"m 54 -4 l 701 769 l 726 749 l 79 -25 l 54 -4 m 390 -6 q 205 42 286 -6 q 78 174 124 89 q 32 367 32 258 q 78 560 32 475 q 205 692 124 644 q 390 739 286 739 q 576 692 494 739 q 703 560 657 644 q 749 367 749 475 q 703 174 749 258 q 576 42 657 89 q 390 -6 494 -6 m 390 26 q 555 69 481 26 q 672 188 629 111 q 714 367 714 265 q 672 545 714 468 q 555 665 629 622 q 390 707 481 707 q 226 665 300 707 q 109 545 151 622 q 67 367 67 468 q 109 188 67 265 q 226 69 151 111 q 390 26 300 26 z "},"õ":{"ha":781,"x_min":32,"x_max":749,"o":"m 390 -7 q 205 40 286 -7 q 78 172 124 88 q 32 365 32 257 q 78 558 32 474 q 205 690 124 643 q 390 738 286 738 q 576 690 494 738 q 703 558 657 643 q 749 365 749 474 q 703 172 749 257 q 576 40 657 88 q 390 -7 494 -7 m 390 25 q 555 67 481 25 q 672 187 629 110 q 714 365 714 264 q 672 544 714 467 q 555 663 629 621 q 390 706 481 706 q 226 663 300 706 q 109 544 151 621 q 67 365 67 467 q 109 187 67 264 q 226 67 151 110 q 390 25 300 25 m 485 817 q 434 827 456 817 q 381 858 413 838 q 335 887 354 878 q 293 896 315 896 q 247 878 264 896 q 228 824 229 860 l 197 824 q 224 899 197 871 q 296 926 251 926 q 347 916 325 926 q 400 885 368 906 q 446 856 426 865 q 488 847 465 847 q 534 865 517 847 q 553 919 551 883 l 583 919 q 556 844 583 872 q 485 817 529 817 z "},"œ":{"ha":1389,"x_min":32,"x_max":1364,"o":"m 390 -7 q 205 40 286 -7 q 78 172 124 88 q 32 365 32 257 q 78 558 32 474 q 205 690 124 643 q 390 738 286 738 q 606 670 515 738 q 729 489 697 603 l 732 489 q 847 670 761 603 q 1051 738 932 738 q 1222 690 1150 738 q 1328 559 1293 643 q 1358 368 1364 475 l 731 368 l 731 400 l 1346 400 l 1325 386 q 1292 556 1325 483 q 1197 667 1258 628 q 1051 706 1135 706 q 896 663 965 706 q 787 544 826 621 q 747 365 747 467 q 789 185 747 263 q 904 67 831 108 q 1069 25 978 25 q 1185 42 1126 25 q 1292 94 1244 58 l 1292 56 q 1183 8 1242 24 q 1065 -7 1124 -7 q 852 60 942 -7 q 731 240 763 126 l 728 240 q 606 60 696 126 q 390 -7 515 -7 m 390 25 q 555 67 481 25 q 672 187 629 110 q 714 365 714 264 q 672 544 714 467 q 555 663 629 621 q 390 706 481 706 q 226 663 300 706 q 109 544 151 621 q 67 365 67 467 q 109 187 67 264 q 226 67 151 110 q 390 25 300 25 z "},"p":{"ha":786,"x_min":76,"x_max":753,"o":"m 76 731 l 107 731 l 107 507 l 110 507 q 219 676 139 614 q 415 738 299 738 q 594 690 518 738 q 712 558 671 642 q 753 365 753 474 q 712 173 753 257 q 594 41 671 89 q 415 -7 518 -7 q 222 53 301 -7 q 113 215 142 113 l 110 215 l 110 -187 l 76 -187 l 76 731 m 415 25 q 573 67 504 25 q 680 187 642 110 q 718 365 718 264 q 680 544 718 467 q 573 663 642 621 q 415 706 504 706 q 257 663 326 706 q 149 543 188 621 q 110 365 110 465 q 149 188 110 265 q 257 67 188 110 q 415 25 326 25 z "},"þ":{"ha":785,"x_min":76,"x_max":751,"o":"m 76 989 l 110 989 l 110 515 l 113 515 q 222 678 142 618 q 415 738 301 738 q 594 690 518 738 q 711 558 671 642 q 751 365 751 474 q 711 173 751 257 q 594 41 671 89 q 415 -7 518 -7 q 222 53 301 -7 q 113 215 142 113 l 110 215 l 110 -187 l 76 -187 l 76 989 m 414 25 q 572 67 503 25 q 678 187 640 110 q 717 365 717 264 q 678 544 717 467 q 572 663 640 621 q 414 706 503 706 q 256 663 325 706 q 147 543 186 621 q 108 365 108 465 q 147 188 108 265 q 256 67 186 110 q 414 25 325 25 z "},"q":{"ha":786,"x_min":33,"x_max":710,"o":"m 676 215 l 674 215 q 565 53 644 113 q 371 -7 485 -7 q 192 41 268 -7 q 74 173 115 89 q 33 365 33 257 q 74 558 33 474 q 192 690 115 642 q 371 738 268 738 q 567 676 488 738 q 676 507 647 614 l 679 507 l 679 731 l 710 731 l 710 -187 l 676 -187 l 676 215 m 371 25 q 529 67 460 25 q 638 188 599 110 q 676 365 676 265 q 638 543 676 465 q 529 663 599 621 q 371 706 460 706 q 213 663 282 706 q 106 544 144 621 q 68 365 68 467 q 106 187 68 264 q 213 67 144 110 q 371 25 282 25 z "},"r":{"ha":385,"x_min":76,"x_max":368,"o":"m 76 731 l 107 731 l 107 606 l 110 606 q 176 703 131 669 q 286 738 221 738 q 368 725 324 738 l 368 689 q 282 707 324 707 q 157 646 204 707 q 110 481 110 585 l 110 0 l 76 0 l 76 731 z "},"ŕ":{"ha":385,"x_min":76,"x_max":368,"o":"m 76 731 l 107 731 l 107 606 l 110 606 q 176 703 131 669 q 286 738 221 738 q 368 725 324 738 l 368 689 q 282 707 324 707 q 157 646 204 707 q 110 481 110 585 l 110 0 l 76 0 l 76 731 m 321 997 l 360 997 l 235 807 l 199 807 l 321 997 z "},"ř":{"ha":385,"x_min":65,"x_max":397,"o":"m 76 731 l 107 731 l 107 606 l 110 606 q 176 703 131 669 q 286 738 221 738 q 368 725 324 738 l 368 689 q 282 707 324 707 q 157 646 204 707 q 110 481 110 585 l 110 0 l 76 0 l 76 731 m 65 989 l 106 989 l 231 825 l 233 825 l 358 989 l 397 989 l 250 799 l 213 799 l 65 989 z "},"ŗ":{"ha":385,"x_min":31,"x_max":368,"o":"m 76 731 l 107 731 l 107 606 l 110 606 q 176 703 131 669 q 286 738 221 738 q 368 725 324 738 l 368 689 q 282 707 324 707 q 157 646 204 707 q 110 481 110 585 l 110 0 l 76 0 l 76 731 m 79 -69 l 114 -69 l 61 -243 l 31 -243 l 79 -69 z "},"s":{"ha":385,"x_min":28,"x_max":349,"o":"m 157 -8 q 28 19 92 -8 l 28 57 q 161 24 100 24 q 273 64 232 24 q 314 172 314 104 q 296 253 314 217 q 239 322 278 289 l 125 419 q 59 495 79 458 q 39 576 39 532 q 89 695 39 651 q 225 739 139 739 q 318 726 271 739 l 318 690 q 222 707 271 707 q 113 672 153 707 q 72 578 72 638 q 91 507 72 539 q 154 438 110 475 l 263 346 q 328 266 307 308 q 349 174 349 224 q 325 78 349 119 q 258 14 301 36 q 157 -8 215 -8 z "},"ś":{"ha":385,"x_min":28,"x_max":349,"o":"m 157 -8 q 28 19 92 -8 l 28 57 q 161 24 100 24 q 273 64 232 24 q 314 172 314 104 q 296 253 314 217 q 239 322 278 289 l 125 419 q 59 495 79 458 q 39 576 39 532 q 89 695 39 651 q 225 739 139 739 q 318 726 271 739 l 318 690 q 222 707 271 707 q 113 672 153 707 q 72 578 72 638 q 91 507 72 539 q 154 438 110 475 l 263 346 q 328 266 307 308 q 349 174 349 224 q 325 78 349 119 q 258 14 301 36 q 157 -8 215 -8 m 282 997 l 321 997 l 196 807 l 160 807 l 282 997 z "},"š":{"ha":385,"x_min":26,"x_max":358,"o":"m 157 -8 q 28 19 92 -8 l 28 57 q 161 24 100 24 q 273 64 232 24 q 314 172 314 104 q 296 253 314 217 q 239 322 278 289 l 125 419 q 59 495 79 458 q 39 576 39 532 q 89 695 39 651 q 225 739 139 739 q 318 726 271 739 l 318 690 q 222 707 271 707 q 113 672 153 707 q 72 578 72 638 q 91 507 72 539 q 154 438 110 475 l 263 346 q 328 266 307 308 q 349 174 349 224 q 325 78 349 119 q 258 14 301 36 q 157 -8 215 -8 m 26 989 l 67 989 l 192 825 l 194 825 l 319 989 l 358 989 l 211 799 l 174 799 l 26 989 z "},"ş":{"ha":385,"x_min":28,"x_max":349,"o":"m 157 -8 q 28 19 92 -8 l 28 57 q 161 24 100 24 q 273 64 232 24 q 314 172 314 104 q 296 253 314 217 q 239 322 278 289 l 125 419 q 59 495 79 458 q 39 576 39 532 q 89 695 39 651 q 225 739 139 739 q 318 726 271 739 l 318 690 q 222 707 271 707 q 113 672 153 707 q 72 578 72 638 q 91 507 72 539 q 154 438 110 475 l 263 346 q 328 266 307 308 q 349 174 349 224 q 325 78 349 119 q 258 14 301 36 q 157 -8 215 -8 m 68 -203 l 171 22 l 200 11 l 100 -215 l 68 -203 z "},"ß":{"ha":688,"x_min":74,"x_max":657,"o":"m 364 -7 q 192 28 272 -7 l 192 67 q 364 25 268 25 q 500 55 442 25 q 590 141 558 85 q 622 275 622 197 q 553 458 622 390 q 364 526 483 526 l 267 526 l 267 558 l 308 558 q 426 584 376 558 q 503 656 476 610 q 529 764 529 703 q 471 913 529 858 q 315 967 413 967 q 164 911 221 967 q 107 757 107 856 l 107 0 l 74 0 l 74 757 q 138 933 74 868 q 314 997 203 997 q 447 968 390 997 q 533 886 503 939 q 564 767 564 833 q 526 635 564 692 q 419 554 489 578 l 419 551 q 593 464 529 538 q 657 275 657 390 q 622 126 657 190 q 520 28 586 63 q 364 -7 454 -7 z "},"t":{"ha":371,"x_min":11,"x_max":354,"o":"m 263 -7 q 144 36 182 -7 q 107 169 107 79 l 107 707 l 140 707 l 140 169 q 169 60 140 96 q 263 25 199 25 q 354 40 306 25 l 354 7 q 263 -7 308 -7 m 11 721 q 76 730 57 724 q 101 753 94 736 q 108 813 107 771 l 110 875 l 140 875 l 140 731 l 343 731 l 343 699 l 11 699 l 11 721 z "},"ŧ":{"ha":385,"x_min":11,"x_max":354,"o":"m 11 453 l 343 453 l 343 421 l 11 421 l 11 453 m 263 -7 q 144 36 182 -7 q 107 169 107 79 l 107 707 l 140 707 l 140 169 q 169 60 140 96 q 263 25 199 25 q 354 40 306 25 l 354 7 q 263 -7 308 -7 m 11 721 q 76 730 57 724 q 101 753 94 736 q 108 813 107 771 l 110 875 l 140 875 l 140 731 l 343 731 l 343 699 l 11 699 l 11 721 z "},"ť":{"ha":371,"x_min":11,"x_max":354,"o":"m 263 -7 q 144 36 182 -7 q 107 169 107 79 l 107 707 l 140 707 l 140 169 q 169 60 140 96 q 263 25 199 25 q 354 40 306 25 l 354 7 q 263 -7 308 -7 m 11 721 q 76 730 57 724 q 101 753 94 736 q 108 813 107 771 l 110 875 l 140 875 l 140 731 l 343 731 l 343 699 l 11 699 l 11 721 m 246 1076 l 279 1076 l 250 804 l 218 804 l 246 1076 z "},"ţ":{"ha":371,"x_min":11,"x_max":354,"o":"m 263 -7 q 144 36 182 -7 q 107 169 107 79 l 107 707 l 140 707 l 140 169 q 169 60 140 96 q 263 25 199 25 q 354 40 306 25 l 354 7 q 263 -7 308 -7 m 11 721 q 76 730 57 724 q 101 753 94 736 q 108 813 107 771 l 110 875 l 140 875 l 140 731 l 343 731 l 343 699 l 11 699 l 11 721 m 124 -203 l 226 22 l 256 11 l 156 -215 l 124 -203 z "},"u":{"ha":610,"x_min":74,"x_max":533,"o":"m 289 -7 q 172 24 221 -7 q 99 110 124 54 q 74 240 74 165 l 74 731 l 107 731 l 107 242 q 156 83 107 142 q 293 24 204 24 q 444 89 389 24 q 500 260 500 154 l 500 731 l 533 731 l 533 0 l 503 0 l 503 138 l 500 138 q 420 31 475 69 q 289 -7 365 -7 z "},"ú":{"ha":610,"x_min":74,"x_max":533,"o":"m 289 -7 q 172 24 221 -7 q 99 110 124 54 q 74 240 74 165 l 74 731 l 107 731 l 107 242 q 156 83 107 142 q 293 24 204 24 q 444 89 389 24 q 500 260 500 154 l 500 731 l 533 731 l 533 0 l 503 0 l 503 138 l 500 138 q 420 31 475 69 q 289 -7 365 -7 m 392 997 l 431 997 l 306 807 l 269 807 l 392 997 z "},"û":{"ha":610,"x_min":74,"x_max":533,"o":"m 289 -7 q 172 24 221 -7 q 99 110 124 54 q 74 240 74 165 l 74 731 l 107 731 l 107 242 q 156 83 107 142 q 293 24 204 24 q 444 89 389 24 q 500 260 500 154 l 500 731 l 533 731 l 533 0 l 503 0 l 503 138 l 500 138 q 420 31 475 69 q 289 -7 365 -7 m 283 997 l 321 997 l 468 807 l 428 807 l 303 971 l 300 971 l 175 807 l 136 807 l 283 997 z "},"ü":{"ha":610,"x_min":74,"x_max":533,"o":"m 289 -7 q 172 24 221 -7 q 99 110 124 54 q 74 240 74 165 l 74 731 l 107 731 l 107 242 q 156 83 107 142 q 293 24 204 24 q 444 89 389 24 q 500 260 500 154 l 500 731 l 533 731 l 533 0 l 503 0 l 503 138 l 500 138 q 420 31 475 69 q 289 -7 365 -7 m 176 842 q 148 853 160 842 q 136 882 136 864 q 148 911 136 900 q 176 922 160 922 q 205 911 193 922 q 217 882 217 900 q 205 853 217 864 q 176 842 193 842 m 426 842 q 398 853 410 842 q 386 882 386 864 q 398 911 386 900 q 426 922 410 922 q 455 911 443 922 q 467 882 467 900 q 455 853 467 864 q 426 842 443 842 z "},"ù":{"ha":610,"x_min":74,"x_max":533,"o":"m 289 -7 q 172 24 221 -7 q 99 110 124 54 q 74 240 74 165 l 74 731 l 107 731 l 107 242 q 156 83 107 142 q 293 24 204 24 q 444 89 389 24 q 500 260 500 154 l 500 731 l 533 731 l 533 0 l 503 0 l 503 138 l 500 138 q 420 31 475 69 q 289 -7 365 -7 m 171 997 l 211 997 l 333 807 l 296 807 l 171 997 z "},"ű":{"ha":610,"x_min":74,"x_max":533,"o":"m 289 -7 q 172 24 221 -7 q 99 110 124 54 q 74 240 74 165 l 74 731 l 107 731 l 107 242 q 156 83 107 142 q 293 24 204 24 q 444 89 389 24 q 500 260 500 154 l 500 731 l 533 731 l 533 0 l 503 0 l 503 138 l 500 138 q 420 31 475 69 q 289 -7 365 -7 m 264 997 l 300 997 l 226 807 l 194 807 l 264 997 m 458 997 l 494 997 l 408 807 l 375 807 l 458 997 z "},"ū":{"ha":610,"x_min":74,"x_max":533,"o":"m 289 -7 q 172 24 221 -7 q 99 110 124 54 q 74 240 74 165 l 74 731 l 107 731 l 107 242 q 156 83 107 142 q 293 24 204 24 q 444 89 389 24 q 500 260 500 154 l 500 731 l 533 731 l 533 0 l 503 0 l 503 138 l 500 138 q 420 31 475 69 q 289 -7 365 -7 m 118 896 l 485 896 l 485 865 l 118 865 l 118 896 z "},"ų":{"ha":610,"x_min":74,"x_max":533,"o":"m 289 -7 q 172 24 221 -7 q 99 110 124 54 q 74 240 74 165 l 74 731 l 107 731 l 107 242 q 156 83 107 142 q 293 24 204 24 q 444 89 389 24 q 500 260 500 154 l 500 731 l 533 731 l 533 0 l 503 0 l 503 138 l 500 138 q 420 31 475 69 q 289 -7 365 -7 m 486 -228 q 414 -201 442 -228 q 386 -129 386 -174 q 423 -36 386 -78 q 517 21 460 6 l 533 0 q 478 -17 506 0 q 434 -63 451 -35 q 417 -125 417 -92 q 437 -179 417 -160 q 492 -199 457 -199 q 533 -192 514 -199 l 533 -219 q 486 -228 511 -228 z "},"ů":{"ha":610,"x_min":74,"x_max":533,"o":"m 289 -7 q 172 24 221 -7 q 99 110 124 54 q 74 240 74 165 l 74 731 l 107 731 l 107 242 q 156 83 107 142 q 293 24 204 24 q 444 89 389 24 q 500 260 500 154 l 500 731 l 533 731 l 533 0 l 503 0 l 503 138 l 500 138 q 420 31 475 69 q 289 -7 365 -7 m 301 819 q 214 853 249 819 q 179 940 179 888 q 214 1027 179 993 q 301 1061 249 1061 q 389 1027 354 1061 q 424 940 424 993 q 389 853 424 888 q 301 819 354 819 m 301 849 q 367 874 342 849 q 392 940 392 900 q 367 1006 392 981 q 301 1032 342 1032 q 236 1006 261 1032 q 211 940 211 981 q 236 874 211 900 q 301 849 261 849 z "},"v":{"ha":538,"x_min":14,"x_max":524,"o":"m 14 731 l 50 731 l 268 39 l 271 39 l 489 731 l 524 731 l 290 0 l 246 0 l 14 731 z "},"w":{"ha":890,"x_min":22,"x_max":868,"o":"m 22 731 l 57 731 l 222 42 l 225 42 l 422 731 l 465 731 l 664 40 l 667 40 l 835 731 l 868 731 l 688 0 l 643 0 l 444 688 l 442 688 l 244 0 l 199 0 l 22 731 z "},"ẃ":{"ha":890,"x_min":22,"x_max":868,"o":"m 22 731 l 57 731 l 222 42 l 225 42 l 422 731 l 465 731 l 664 40 l 667 40 l 835 731 l 868 731 l 688 0 l 643 0 l 444 688 l 442 688 l 244 0 l 199 0 l 22 731 m 532 997 l 571 997 l 446 807 l 410 807 l 532 997 z "},"ŵ":{"ha":890,"x_min":22,"x_max":868,"o":"m 22 731 l 57 731 l 222 42 l 225 42 l 422 731 l 465 731 l 664 40 l 667 40 l 835 731 l 868 731 l 688 0 l 643 0 l 444 688 l 442 688 l 244 0 l 199 0 l 22 731 m 424 997 l 461 997 l 608 807 l 568 807 l 443 971 l 440 971 l 315 807 l 276 807 l 424 997 z "},"ẅ":{"ha":890,"x_min":22,"x_max":868,"o":"m 22 731 l 57 731 l 222 42 l 225 42 l 422 731 l 465 731 l 664 40 l 667 40 l 835 731 l 868 731 l 688 0 l 643 0 l 444 688 l 442 688 l 244 0 l 199 0 l 22 731 m 317 842 q 288 853 300 842 q 276 882 276 864 q 288 911 276 900 q 317 922 300 922 q 345 911 333 922 q 357 882 357 900 q 345 853 357 864 q 317 842 333 842 m 567 842 q 538 853 550 842 q 526 882 526 864 q 538 911 526 900 q 567 922 550 922 q 595 911 583 922 q 607 882 607 900 q 595 853 607 864 q 567 842 583 842 z "},"ẁ":{"ha":890,"x_min":22,"x_max":868,"o":"m 22 731 l 57 731 l 222 42 l 225 42 l 422 731 l 465 731 l 664 40 l 667 40 l 835 731 l 868 731 l 688 0 l 643 0 l 444 688 l 442 688 l 244 0 l 199 0 l 22 731 m 311 997 l 351 997 l 474 807 l 436 807 l 311 997 z "},"x":{"ha":519,"x_min":17,"x_max":503,"o":"m 246 393 l 247 367 l 29 731 l 67 731 l 258 410 l 261 410 l 453 731 l 489 731 l 272 369 l 274 396 l 503 0 l 465 0 l 261 354 l 258 354 l 53 0 l 17 0 l 246 393 z "},"y":{"ha":551,"x_min":14,"x_max":538,"o":"m 268 57 l 268 29 l 14 731 l 50 731 l 279 92 l 282 92 l 503 731 l 538 731 l 217 -187 l 181 -187 l 268 57 z "},"ý":{"ha":551,"x_min":14,"x_max":538,"o":"m 268 57 l 268 29 l 14 731 l 50 731 l 279 92 l 282 92 l 503 731 l 538 731 l 217 -187 l 181 -187 l 268 57 m 364 997 l 403 997 l 278 807 l 242 807 l 364 997 z "},"ŷ":{"ha":551,"x_min":14,"x_max":538,"o":"m 268 57 l 268 29 l 14 731 l 50 731 l 279 92 l 282 92 l 503 731 l 538 731 l 217 -187 l 181 -187 l 268 57 m 256 997 l 293 997 l 440 807 l 400 807 l 275 971 l 272 971 l 147 807 l 108 807 l 256 997 z "},"ÿ":{"ha":551,"x_min":14,"x_max":538,"o":"m 268 57 l 268 29 l 14 731 l 50 731 l 279 92 l 282 92 l 503 731 l 538 731 l 217 -187 l 181 -187 l 268 57 m 149 842 q 120 853 132 842 q 108 882 108 864 q 120 911 108 900 q 149 922 132 922 q 177 911 165 922 q 189 882 189 900 q 177 853 189 864 q 149 842 165 842 m 399 842 q 370 853 382 842 q 358 882 358 864 q 370 911 358 900 q 399 922 382 922 q 427 911 415 922 q 439 882 439 900 q 427 853 439 864 q 399 842 415 842 z "},"ỳ":{"ha":551,"x_min":14,"x_max":538,"o":"m 268 57 l 268 29 l 14 731 l 50 731 l 279 92 l 282 92 l 503 731 l 538 731 l 217 -187 l 181 -187 l 268 57 m 143 997 l 183 997 l 306 807 l 268 807 l 143 997 z "},"z":{"ha":458,"x_min":22,"x_max":436,"o":"m 22 21 l 390 713 l 399 699 l 40 699 l 40 731 l 425 731 l 425 710 l 57 18 l 49 32 l 436 32 l 436 0 l 22 0 l 22 21 z "},"ź":{"ha":458,"x_min":22,"x_max":436,"o":"m 22 21 l 390 713 l 399 699 l 40 699 l 40 731 l 425 731 l 425 710 l 57 18 l 49 32 l 436 32 l 436 0 l 22 0 l 22 21 m 321 997 l 360 997 l 235 807 l 199 807 l 321 997 z "},"ž":{"ha":458,"x_min":22,"x_max":436,"o":"m 22 21 l 390 713 l 399 699 l 40 699 l 40 731 l 425 731 l 425 710 l 57 18 l 49 32 l 436 32 l 436 0 l 22 0 l 22 21 m 65 989 l 106 989 l 231 825 l 233 825 l 358 989 l 397 989 l 250 799 l 213 799 l 65 989 z "},"ż":{"ha":458,"x_min":22,"x_max":436,"o":"m 22 21 l 390 713 l 399 699 l 40 699 l 40 731 l 425 731 l 425 710 l 57 18 l 49 32 l 436 32 l 436 0 l 22 0 l 22 21 m 231 843 q 201 855 213 843 q 189 885 189 867 q 201 915 189 903 q 231 926 213 926 q 260 915 249 926 q 272 885 272 903 q 260 855 272 867 q 231 843 249 843 z "},"ﬁ":{"ha":514,"x_min":14,"x_max":458,"o":"m 94 810 q 134 955 94 907 q 247 1003 174 1003 q 325 989 286 1003 l 325 954 q 247 971 288 971 q 157 932 186 971 q 128 808 128 893 l 128 0 l 94 0 l 94 810 m 14 731 l 318 731 l 318 699 l 14 699 l 14 731 m 400 731 l 433 731 l 433 0 l 400 0 l 400 731 m 417 843 q 387 855 399 843 q 375 885 375 867 q 387 915 375 903 q 417 926 399 926 q 447 915 435 926 q 458 885 458 903 q 447 855 458 867 q 417 843 435 843 z "},"ﬂ":{"ha":519,"x_min":14,"x_max":443,"o":"m 94 810 q 134 955 94 907 q 247 1003 174 1003 q 325 989 286 1003 l 325 954 q 247 971 288 971 q 157 932 186 971 q 128 808 128 893 l 128 0 l 94 0 l 94 810 m 14 731 l 318 731 l 318 699 l 14 699 l 14 731 m 410 989 l 443 989 l 443 0 l 410 0 l 410 989 z "},"ª":{"ha":351,"x_min":35,"x_max":303,"o":"m 163 565 q 71 601 107 565 q 35 694 35 638 q 71 785 35 750 q 164 821 107 821 q 224 808 197 821 q 269 771 251 796 l 272 771 l 272 843 q 247 920 272 893 q 172 947 221 947 q 65 914 119 947 l 65 947 q 175 976 118 976 q 269 942 236 976 q 303 843 303 907 l 303 569 l 275 569 l 275 621 l 272 621 q 226 580 254 594 q 163 565 197 565 m 169 592 q 244 620 214 592 q 274 694 274 649 q 244 767 274 740 q 169 794 214 794 q 96 767 125 794 q 67 694 67 740 q 96 620 67 649 q 169 592 125 592 z "},"º":{"ha":464,"x_min":31,"x_max":433,"o":"m 232 565 q 87 623 143 565 q 31 771 31 681 q 56 877 31 831 q 128 950 82 924 q 232 976 174 976 q 377 919 321 976 q 433 771 433 861 q 408 665 433 711 q 336 592 382 618 q 232 565 290 565 m 232 596 q 319 617 281 596 q 380 679 358 639 q 401 771 401 719 q 354 898 401 850 q 232 946 307 946 q 144 924 183 946 q 84 863 106 903 q 63 771 63 822 q 110 644 63 692 q 232 596 157 596 z "},"₀":{"ha":443,"x_min":42,"x_max":401,"o":"m 221 -151 q 88 -81 135 -151 q 42 121 42 -11 q 63 270 42 210 q 124 362 83 331 q 221 393 164 393 q 355 323 308 393 q 401 121 401 253 q 381 -28 401 33 q 319 -120 360 -89 q 221 -151 279 -151 m 221 -122 q 301 -95 268 -122 q 352 -13 335 -68 q 369 121 369 42 q 331 301 369 240 q 221 363 293 363 q 141 335 174 363 q 91 254 108 308 q 74 121 74 200 q 113 -60 74 1 q 221 -122 151 -122 z "},"₁":{"ha":219,"x_min":28,"x_max":136,"o":"m 104 372 l 119 357 l 28 357 l 28 388 l 136 388 l 136 -146 l 104 -146 l 104 372 z "},"₂":{"ha":368,"x_min":42,"x_max":326,"o":"m 42 -126 l 232 111 q 279 187 264 151 q 294 256 294 222 q 265 334 294 306 q 188 363 236 363 q 104 331 135 363 q 74 247 74 299 q 79 204 74 229 l 47 204 q 42 249 42 226 q 81 353 42 313 q 188 393 121 393 q 289 356 251 393 q 326 256 326 318 q 309 176 326 217 q 256 90 292 135 l 83 -122 l 68 -115 l 326 -115 l 326 -146 l 42 -146 l 42 -126 z "},"₃":{"ha":401,"x_min":40,"x_max":360,"o":"m 199 -151 q 84 -108 128 -151 q 42 3 40 -64 l 74 3 q 108 -86 74 -51 q 199 -121 142 -121 q 292 -85 257 -121 q 328 11 328 -49 q 292 104 328 71 q 190 138 256 138 l 153 138 l 153 158 l 307 368 l 317 357 l 54 357 l 54 388 l 342 388 l 342 365 l 188 154 l 176 165 q 310 128 261 171 q 360 11 360 85 q 340 -72 360 -35 q 283 -131 319 -110 q 199 -151 246 -151 z "},"₄":{"ha":404,"x_min":35,"x_max":363,"o":"m 263 -43 l 35 -43 l 35 -24 l 249 388 l 294 388 l 294 -146 l 263 -146 l 263 -43 m 60 -14 l 264 -14 l 265 351 l 263 351 l 67 -26 l 60 -14 m 285 -12 l 363 -12 l 363 -43 l 285 -43 l 285 -12 z "},"₅":{"ha":411,"x_min":42,"x_max":369,"o":"m 201 -151 q 87 -109 131 -151 q 42 3 43 -67 l 74 3 q 111 -87 75 -53 q 203 -121 147 -121 q 272 -103 242 -121 q 320 -52 303 -85 q 338 24 338 -19 q 301 123 338 86 q 204 160 264 160 q 89 93 128 160 l 57 93 l 71 388 l 342 388 l 342 357 l 88 357 l 103 371 l 89 139 l 92 139 q 208 189 136 189 q 325 144 281 189 q 369 24 369 100 q 348 -69 369 -29 q 288 -130 326 -108 q 201 -151 250 -151 z "},"₆":{"ha":414,"x_min":42,"x_max":372,"o":"m 110 129 l 111 149 q 210 178 154 178 q 326 132 281 178 q 372 14 372 86 q 351 -71 372 -33 q 292 -130 331 -108 q 206 -151 254 -151 q 88 -106 133 -151 q 42 13 42 -61 q 54 81 42 47 q 97 163 67 115 l 242 388 l 279 388 l 110 129 m 206 149 q 137 131 167 149 q 90 83 107 114 q 74 14 74 53 q 110 -83 74 -44 q 206 -121 147 -121 q 275 -103 244 -121 q 323 -55 306 -86 q 340 15 340 -24 q 303 111 340 74 q 206 149 265 149 z "},"₇":{"ha":338,"x_min":42,"x_max":296,"o":"m 42 388 l 296 388 l 296 368 l 136 -146 l 103 -146 l 264 369 l 274 357 l 42 357 l 42 388 z "},"₈":{"ha":411,"x_min":42,"x_max":369,"o":"m 206 -151 q 86 -109 131 -151 q 42 0 42 -67 q 71 91 42 53 q 151 143 100 129 l 151 146 q 86 188 110 157 q 63 264 63 219 q 102 357 63 321 q 206 393 142 393 q 309 357 269 393 q 349 264 349 321 q 325 188 349 219 q 260 146 301 157 l 260 143 q 340 91 311 129 q 369 0 369 53 q 349 -78 369 -44 q 292 -132 329 -112 q 206 -151 254 -151 m 206 -121 q 274 -106 244 -121 q 321 -62 304 -90 q 338 3 338 -33 q 301 93 338 58 q 206 128 264 128 q 137 113 167 128 q 90 69 107 97 q 74 3 74 40 q 110 -87 74 -53 q 206 -121 146 -121 m 206 158 q 285 188 254 158 q 317 261 317 217 q 285 334 317 306 q 206 363 254 363 q 126 334 157 363 q 94 261 94 306 q 126 188 94 217 q 206 158 157 158 z "},"₉":{"ha":414,"x_min":42,"x_max":372,"o":"m 304 113 l 303 93 q 204 64 260 64 q 88 110 133 64 q 42 228 42 156 q 63 313 42 275 q 122 372 83 350 q 208 393 160 393 q 326 348 281 393 q 372 229 372 303 q 360 160 372 194 q 317 79 347 126 l 172 -146 l 135 -146 l 304 113 m 208 93 q 277 110 247 93 q 324 158 307 128 q 340 228 340 189 q 303 324 340 286 q 208 363 267 363 q 139 345 169 363 q 91 297 108 328 q 74 226 74 265 q 111 131 74 168 q 208 93 149 93 z "},"⁰":{"ha":443,"x_min":42,"x_max":401,"o":"m 221 536 q 88 606 135 536 q 42 808 42 676 q 63 958 42 897 q 124 1049 83 1018 q 221 1081 164 1081 q 355 1010 308 1081 q 401 808 401 940 q 381 660 401 721 q 319 567 360 599 q 221 536 279 536 m 221 565 q 301 592 268 565 q 352 674 335 619 q 369 808 369 729 q 331 989 369 928 q 221 1050 293 1050 q 141 1023 174 1050 q 91 942 108 996 q 74 808 74 888 q 113 627 74 689 q 221 565 151 565 z "},"¹":{"ha":219,"x_min":28,"x_max":136,"o":"m 104 1060 l 119 1044 l 28 1044 l 28 1075 l 136 1075 l 136 542 l 104 542 l 104 1060 z "},"²":{"ha":368,"x_min":42,"x_max":326,"o":"m 42 561 l 232 799 q 279 874 264 839 q 294 943 294 910 q 265 1022 294 993 q 188 1050 236 1050 q 104 1018 135 1050 q 74 935 74 986 q 79 892 74 917 l 47 892 q 42 936 42 914 q 81 1040 42 1000 q 188 1081 121 1081 q 289 1043 251 1081 q 326 943 326 1006 q 309 863 326 904 q 256 778 292 822 l 83 565 l 68 572 l 326 572 l 326 542 l 42 542 l 42 561 z "},"³":{"ha":401,"x_min":40,"x_max":360,"o":"m 199 536 q 84 580 128 536 q 42 690 40 624 l 74 690 q 108 601 74 636 q 199 567 142 567 q 292 603 257 567 q 328 699 328 639 q 292 792 328 758 q 190 825 256 825 l 153 825 l 153 846 l 307 1056 l 317 1044 l 54 1044 l 54 1075 l 342 1075 l 342 1053 l 188 842 l 176 853 q 310 815 261 858 q 360 699 360 772 q 340 615 360 653 q 283 557 319 578 q 199 536 246 536 z "},"⁴":{"ha":404,"x_min":35,"x_max":363,"o":"m 263 644 l 35 644 l 35 664 l 249 1075 l 294 1075 l 294 542 l 263 542 l 263 644 m 60 674 l 264 674 l 265 1039 l 263 1039 l 67 661 l 60 674 m 285 675 l 363 675 l 363 644 l 285 644 l 285 675 z "},"⁵":{"ha":411,"x_min":42,"x_max":369,"o":"m 201 536 q 87 578 131 536 q 42 690 43 621 l 74 690 q 111 601 75 635 q 203 567 147 567 q 272 585 242 567 q 320 635 303 603 q 338 711 338 668 q 301 810 338 774 q 204 847 264 847 q 89 781 128 847 l 57 781 l 71 1075 l 342 1075 l 342 1044 l 88 1044 l 103 1058 l 89 826 l 92 826 q 208 876 136 876 q 325 832 281 876 q 369 711 369 788 q 348 619 369 658 q 288 558 326 579 q 201 536 250 536 z "},"⁶":{"ha":414,"x_min":42,"x_max":372,"o":"m 110 817 l 111 836 q 210 865 154 865 q 326 819 281 865 q 372 701 372 774 q 351 617 372 654 q 292 558 331 579 q 206 536 254 536 q 88 581 133 536 q 42 700 42 626 q 54 769 42 735 q 97 850 67 803 l 242 1075 l 279 1075 l 110 817 m 206 836 q 137 819 167 836 q 90 771 107 801 q 74 701 74 740 q 110 605 74 643 q 206 567 147 567 q 275 584 244 567 q 323 633 306 601 q 340 703 340 664 q 303 799 340 761 q 206 836 265 836 z "},"⁷":{"ha":338,"x_min":42,"x_max":296,"o":"m 42 1075 l 296 1075 l 296 1056 l 136 542 l 103 542 l 264 1057 l 274 1044 l 42 1044 l 42 1075 z "},"⁸":{"ha":411,"x_min":42,"x_max":369,"o":"m 206 536 q 86 578 131 536 q 42 688 42 621 q 71 778 42 740 q 151 831 100 817 l 151 833 q 86 876 110 844 q 63 951 63 907 q 102 1044 63 1008 q 206 1081 142 1081 q 309 1044 269 1081 q 349 951 349 1008 q 325 876 349 907 q 260 833 301 844 l 260 831 q 340 778 311 817 q 369 688 369 740 q 349 609 369 643 q 292 556 329 575 q 206 536 254 536 m 206 567 q 274 582 244 567 q 321 626 304 597 q 338 690 338 654 q 301 781 338 746 q 206 815 264 815 q 137 800 167 815 q 90 756 107 785 q 74 690 74 728 q 110 601 74 635 q 206 567 146 567 m 206 846 q 285 875 254 846 q 317 949 317 904 q 285 1022 317 993 q 206 1050 254 1050 q 126 1022 157 1050 q 94 949 94 993 q 126 875 94 904 q 206 846 157 846 z "},"⁹":{"ha":414,"x_min":42,"x_max":372,"o":"m 304 800 l 303 781 q 204 751 260 751 q 88 797 133 751 q 42 915 42 843 q 63 1000 42 963 q 122 1059 83 1038 q 208 1081 160 1081 q 326 1035 281 1081 q 372 917 372 990 q 360 848 372 882 q 317 767 347 814 l 172 542 l 135 542 l 304 800 m 208 781 q 277 798 247 781 q 324 846 307 815 q 340 915 340 876 q 303 1012 340 974 q 208 1050 267 1050 q 139 1033 169 1050 q 91 984 108 1015 q 74 914 74 953 q 111 818 74 856 q 208 781 149 781 z "},"⁄":{"ha":796,"x_min":22,"x_max":774,"o":"m 735 969 l 774 969 l 61 0 l 22 0 l 735 969 z "},"½":{"ha":981,"x_min":28,"x_max":939,"o":"m 104 954 l 119 939 l 28 939 l 28 969 l 136 969 l 136 436 l 104 436 l 104 954 m 774 969 l 813 969 l 100 0 l 61 0 l 774 969 m 654 19 l 844 257 q 892 333 876 297 q 907 401 907 368 q 878 480 907 451 q 800 508 849 508 q 717 476 747 508 q 686 393 686 444 q 692 350 686 375 l 660 350 q 654 394 654 372 q 694 499 654 458 q 800 539 733 539 q 901 501 864 539 q 939 401 939 464 q 922 322 939 363 q 868 236 904 281 l 696 24 l 681 31 l 939 31 l 939 0 l 654 0 l 654 19 z "},"⅓":{"ha":1028,"x_min":28,"x_max":986,"o":"m 104 954 l 119 939 l 28 939 l 28 969 l 136 969 l 136 436 l 104 436 l 104 954 m 774 969 l 813 969 l 100 0 l 61 0 l 774 969 m 825 -6 q 710 38 754 -6 q 668 149 667 82 l 700 149 q 734 60 700 94 q 825 25 768 25 q 919 61 883 25 q 954 157 954 97 q 918 250 954 217 q 817 283 882 283 l 779 283 l 779 304 l 933 514 l 943 503 l 681 503 l 681 533 l 968 533 l 968 511 l 814 300 l 803 311 q 937 274 888 317 q 986 157 986 231 q 966 74 986 111 q 909 15 946 36 q 825 -6 872 -6 z "},"⅔":{"ha":1149,"x_min":42,"x_max":1107,"o":"m 42 456 l 232 693 q 279 769 264 733 q 294 838 294 804 q 265 916 294 888 q 188 944 236 944 q 104 913 135 944 q 74 829 74 881 q 79 786 74 811 l 47 786 q 42 831 42 808 q 81 935 42 894 q 188 975 121 975 q 289 938 251 975 q 326 838 326 900 q 309 758 326 799 q 256 672 292 717 l 83 460 l 68 467 l 326 467 l 326 436 l 42 436 l 42 456 m 894 969 l 933 969 l 221 0 l 182 0 l 894 969 m 946 -6 q 831 38 875 -6 q 789 149 788 82 l 821 149 q 855 60 821 94 q 946 25 889 25 q 1040 61 1004 25 q 1075 157 1075 97 q 1039 250 1075 217 q 938 283 1003 283 l 900 283 l 900 304 l 1054 514 l 1064 503 l 801 503 l 801 533 l 1089 533 l 1089 511 l 935 300 l 924 311 q 1058 274 1008 317 q 1107 157 1107 231 q 1087 74 1107 111 q 1030 15 1067 36 q 946 -6 993 -6 z "},"¼":{"ha":961,"x_min":28,"x_max":919,"o":"m 104 954 l 119 939 l 28 939 l 28 969 l 136 969 l 136 436 l 104 436 l 104 954 m 774 969 l 813 969 l 100 0 l 61 0 l 774 969 m 819 103 l 592 103 l 592 122 l 806 533 l 851 533 l 851 0 l 819 0 l 819 103 m 617 132 l 821 132 l 822 497 l 819 497 l 624 119 l 617 132 m 842 133 l 919 133 l 919 103 l 842 103 l 842 133 z "},"¾":{"ha":1101,"x_min":40,"x_max":1060,"o":"m 199 431 q 84 474 128 431 q 42 585 40 518 l 74 585 q 108 496 74 531 q 199 461 142 461 q 292 497 257 461 q 328 593 328 533 q 292 686 328 653 q 190 719 256 719 l 153 719 l 153 740 l 307 950 l 317 939 l 54 939 l 54 969 l 342 969 l 342 947 l 188 736 l 176 747 q 310 710 261 753 q 360 593 360 667 q 340 510 360 547 q 283 451 319 472 q 199 431 246 431 m 914 969 l 953 969 l 240 0 l 201 0 l 914 969 m 960 103 l 732 103 l 732 122 l 946 533 l 992 533 l 992 0 l 960 0 l 960 103 m 757 132 l 961 132 l 963 497 l 960 497 l 764 119 l 757 132 m 982 133 l 1060 133 l 1060 103 l 982 103 l 982 133 z "},"⅛":{"ha":1024,"x_min":28,"x_max":982,"o":"m 104 954 l 119 939 l 28 939 l 28 969 l 136 969 l 136 436 l 104 436 l 104 954 m 774 969 l 813 969 l 100 0 l 61 0 l 774 969 m 818 -6 q 699 37 743 -6 q 654 146 654 79 q 683 237 654 199 q 764 289 713 275 l 764 292 q 699 334 722 303 q 675 410 675 365 q 715 503 675 467 q 818 539 754 539 q 922 503 882 539 q 961 410 961 467 q 938 334 961 365 q 872 292 914 303 l 872 289 q 953 237 924 275 q 982 146 982 199 q 962 67 982 101 q 904 14 942 33 q 818 -6 867 -6 m 818 25 q 887 40 857 25 q 933 84 917 56 q 950 149 950 113 q 913 239 950 204 q 818 274 876 274 q 749 258 779 274 q 703 215 719 243 q 686 149 686 186 q 722 59 686 93 q 818 25 758 25 m 818 304 q 898 333 867 304 q 929 407 929 363 q 898 480 929 451 q 818 508 867 508 q 738 480 769 508 q 707 407 707 451 q 738 333 707 363 q 818 304 769 304 z "},"⅜":{"ha":1164,"x_min":40,"x_max":1122,"o":"m 199 431 q 84 474 128 431 q 42 585 40 518 l 74 585 q 108 496 74 531 q 199 461 142 461 q 292 497 257 461 q 328 593 328 533 q 292 686 328 653 q 190 719 256 719 l 153 719 l 153 740 l 307 950 l 317 939 l 54 939 l 54 969 l 342 969 l 342 947 l 188 736 l 176 747 q 310 710 261 753 q 360 593 360 667 q 340 510 360 547 q 283 451 319 472 q 199 431 246 431 m 914 969 l 953 969 l 240 0 l 201 0 l 914 969 m 958 -6 q 839 37 883 -6 q 794 146 794 79 q 824 237 794 199 q 904 289 853 275 l 904 292 q 839 334 863 303 q 815 410 815 365 q 855 503 815 467 q 958 539 894 539 q 1062 503 1022 539 q 1101 410 1101 467 q 1078 334 1101 365 q 1013 292 1054 303 l 1013 289 q 1093 237 1064 275 q 1122 146 1122 199 q 1102 67 1122 101 q 1044 14 1082 33 q 958 -6 1007 -6 m 958 25 q 1027 40 997 25 q 1074 84 1057 56 q 1090 149 1090 113 q 1053 239 1090 204 q 958 274 1017 274 q 890 258 919 274 q 843 215 860 243 q 826 149 826 186 q 863 59 826 93 q 958 25 899 25 m 958 304 q 1038 333 1007 304 q 1069 407 1069 363 q 1038 480 1069 451 q 958 508 1007 508 q 878 480 910 508 q 847 407 847 451 q 878 333 847 363 q 958 304 910 304 z "},"⅝":{"ha":1174,"x_min":42,"x_max":1132,"o":"m 201 431 q 87 473 131 431 q 42 585 43 515 l 74 585 q 111 495 75 529 q 203 461 147 461 q 272 479 242 461 q 320 530 303 497 q 338 606 338 563 q 301 705 338 668 q 204 742 264 742 q 89 675 128 742 l 57 675 l 71 969 l 342 969 l 342 939 l 88 939 l 103 953 l 89 721 l 92 721 q 208 771 136 771 q 325 726 281 771 q 369 606 369 682 q 348 513 369 553 q 288 452 326 474 q 201 431 250 431 m 924 969 l 963 969 l 250 0 l 211 0 l 924 969 m 968 -6 q 849 37 893 -6 q 804 146 804 79 q 833 237 804 199 q 914 289 863 275 l 914 292 q 849 334 872 303 q 825 410 825 365 q 865 503 825 467 q 968 539 904 539 q 1072 503 1032 539 q 1111 410 1111 467 q 1088 334 1111 365 q 1022 292 1064 303 l 1022 289 q 1103 237 1074 275 q 1132 146 1132 199 q 1112 67 1132 101 q 1054 14 1092 33 q 968 -6 1017 -6 m 968 25 q 1037 40 1007 25 q 1083 84 1067 56 q 1100 149 1100 113 q 1063 239 1100 204 q 968 274 1026 274 q 899 258 929 274 q 853 215 869 243 q 836 149 836 186 q 872 59 836 93 q 968 25 908 25 m 968 304 q 1048 333 1017 304 q 1079 407 1079 363 q 1048 480 1079 451 q 968 508 1017 508 q 888 480 919 508 q 857 407 857 451 q 888 333 857 363 q 968 304 919 304 z "},"⅞":{"ha":1072,"x_min":42,"x_max":1031,"o":"m 42 969 l 296 969 l 296 950 l 136 436 l 103 436 l 264 951 l 274 939 l 42 939 l 42 969 m 822 969 l 861 969 l 149 0 l 110 0 l 822 969 m 867 -6 q 747 37 792 -6 q 703 146 703 79 q 732 237 703 199 q 813 289 761 275 l 813 292 q 747 334 771 303 q 724 410 724 365 q 763 503 724 467 q 867 539 803 539 q 970 503 931 539 q 1010 410 1010 467 q 986 334 1010 365 q 921 292 963 303 l 921 289 q 1001 237 972 275 q 1031 146 1031 199 q 1010 67 1031 101 q 953 14 990 33 q 867 -6 915 -6 m 867 25 q 935 40 906 25 q 982 84 965 56 q 999 149 999 113 q 962 239 999 204 q 867 274 925 274 q 798 258 828 274 q 751 215 768 243 q 735 149 735 186 q 771 59 735 93 q 867 25 807 25 m 867 304 q 947 333 915 304 q 978 407 978 363 q 947 480 978 451 q 867 508 915 508 q 787 480 818 508 q 756 407 756 451 q 787 333 756 363 q 867 304 818 304 z "}," ":{"ha":111,"x_min":0,"x_max":0,"o":""},".":{"ha":217,"x_min":63,"x_max":154,"o":"m 108 -7 q 76 6 89 -7 q 63 39 63 19 q 69 62 63 51 q 85 78 75 72 q 108 85 96 85 q 141 72 128 85 q 154 39 154 58 q 148 16 154 26 q 131 -1 142 6 q 108 -7 121 -7 z "},",":{"ha":225,"x_min":33,"x_max":167,"o":"m 33 -182 q 104 -78 78 -137 q 129 32 131 -19 l 135 -7 q 88 1 107 -12 q 69 39 69 14 q 76 62 69 51 q 92 78 82 72 q 117 85 103 85 q 153 68 140 85 q 167 21 167 51 q 151 -50 167 -12 q 106 -123 135 -87 q 38 -187 76 -158 l 33 -182 z "},":":{"ha":225,"x_min":67,"x_max":158,"o":"m 113 -7 q 80 6 93 -7 q 67 39 67 19 q 73 62 67 51 q 90 78 79 72 q 113 85 100 85 q 145 72 132 85 q 158 39 158 58 q 152 16 158 26 q 135 -1 146 6 q 113 -7 125 -7 m 113 646 q 80 659 93 646 q 67 692 67 672 q 73 715 67 704 q 90 731 79 725 q 113 738 100 738 q 145 724 132 738 q 158 692 158 711 q 152 669 158 679 q 135 652 146 658 q 113 646 125 646 z "},";":{"ha":229,"x_min":29,"x_max":163,"o":"m 117 646 q 84 659 97 646 q 71 692 71 672 q 77 715 71 704 q 94 731 83 725 q 117 738 104 738 q 149 724 136 738 q 163 692 163 711 q 156 669 163 679 q 140 652 150 658 q 117 646 129 646 m 29 -182 q 98 -83 69 -142 q 125 32 126 -25 l 131 -7 q 83 1 100 -12 q 65 39 65 15 q 71 62 65 51 q 88 78 76 72 q 113 85 99 85 q 149 69 135 85 q 163 21 163 53 q 149 -45 163 -10 q 106 -118 135 -81 q 33 -187 76 -156 l 29 -182 z "},"…":{"ha":650,"x_min":63,"x_max":588,"o":"m 108 -7 q 76 6 89 -7 q 63 39 63 19 q 69 62 63 51 q 85 78 75 72 q 108 85 96 85 q 141 72 128 85 q 154 39 154 58 q 148 16 154 26 q 131 -1 142 6 q 108 -7 121 -7 m 325 -7 q 292 6 306 -7 q 279 39 279 19 q 285 62 279 51 q 302 78 292 72 q 325 85 313 85 q 358 72 344 85 q 371 39 371 58 q 365 16 371 26 q 348 -1 358 6 q 325 -7 338 -7 m 542 -7 q 509 6 522 -7 q 496 39 496 19 q 502 62 496 51 q 519 78 508 72 q 542 85 529 85 q 574 72 561 85 q 588 39 588 58 q 581 16 588 26 q 565 -1 575 6 q 542 -7 554 -7 z "},"!":{"ha":203,"x_min":56,"x_max":147,"o":"m 85 969 l 119 969 l 118 189 l 86 189 l 85 969 m 101 -7 q 69 6 82 -7 q 56 39 56 19 q 62 62 56 51 q 78 78 68 72 q 101 85 89 85 q 134 72 121 85 q 147 39 147 58 q 141 16 147 26 q 124 -1 135 6 q 101 -7 114 -7 z "},"¡":{"ha":203,"x_min":56,"x_max":147,"o":"m 85 593 l 117 593 l 118 -187 l 83 -187 l 85 593 m 101 697 q 69 710 82 697 q 56 743 56 724 q 62 766 56 756 q 78 783 68 776 q 101 789 89 789 q 134 776 121 789 q 147 743 147 763 q 141 720 147 731 q 124 703 135 710 q 101 697 114 697 z "},"?":{"ha":490,"x_min":17,"x_max":476,"o":"m 117 442 q 189 435 154 435 q 317 463 260 435 q 407 548 374 490 q 440 692 440 606 q 369 883 440 819 q 188 947 299 947 q 17 907 90 947 l 17 946 q 189 981 97 981 q 340 948 275 981 q 440 850 404 915 q 476 692 476 785 q 433 522 476 590 q 311 425 389 454 q 132 408 233 396 l 151 424 l 150 189 l 118 189 l 117 442 m 138 -7 q 105 6 118 -7 q 92 39 92 19 q 98 62 92 51 q 115 78 104 72 q 138 85 125 85 q 170 72 157 85 q 183 39 183 58 q 177 16 183 26 q 160 -1 171 6 q 138 -7 150 -7 z "},"¿":{"ha":485,"x_min":17,"x_max":476,"o":"m 304 -194 q 153 -162 218 -194 q 53 -64 89 -129 q 17 94 17 1 q 60 264 17 196 q 182 361 104 332 q 361 378 260 390 l 342 363 l 343 597 l 375 597 l 376 344 q 304 351 339 351 q 176 324 233 351 q 86 238 119 296 q 53 94 53 181 q 124 -97 53 -33 q 306 -161 194 -161 q 476 -121 403 -161 l 476 -160 q 304 -194 396 -194 m 356 701 q 323 715 336 701 q 310 747 310 728 q 316 770 310 760 q 333 787 322 781 q 356 793 343 793 q 388 780 375 793 q 401 747 401 767 q 395 724 401 735 q 378 708 389 714 q 356 701 368 701 z "},"·":{"ha":217,"x_min":63,"x_max":154,"o":"m 108 383 q 76 397 89 383 q 63 429 63 410 q 69 452 63 442 q 85 469 75 463 q 108 475 96 475 q 141 462 128 475 q 154 429 154 449 q 148 406 154 417 q 131 390 142 396 q 108 383 121 383 z "},"•":{"ha":475,"x_min":104,"x_max":371,"o":"m 238 299 q 169 316 200 299 q 122 363 139 333 q 104 431 104 393 q 122 498 104 468 q 169 544 139 528 q 238 561 200 561 q 333 524 294 561 q 371 431 371 486 q 353 363 371 393 q 306 316 336 333 q 238 299 275 299 z "},"*":{"ha":736,"x_min":44,"x_max":692,"o":"m 157 485 l 343 736 l 44 831 l 56 865 l 351 765 l 350 1079 l 386 1079 l 383 767 l 681 865 l 692 831 l 394 738 l 579 485 l 550 463 l 369 717 l 186 463 l 157 485 z "},"#":{"ha":903,"x_min":67,"x_max":839,"o":"m 694 969 l 729 969 l 499 0 l 464 0 l 694 969 m 72 307 l 765 307 l 760 275 l 67 275 l 72 307 m 401 969 l 436 969 l 206 0 l 171 0 l 401 969 m 146 706 l 839 706 l 833 674 l 140 674 l 146 706 z "},"/":{"ha":460,"x_min":35,"x_max":424,"o":"m 389 1057 l 424 1057 l 69 -125 l 35 -125 l 389 1057 z "},"\\":{"ha":461,"x_min":36,"x_max":426,"o":"m 36 1057 l 72 1057 l 426 -125 l 390 -125 l 36 1057 z "},"-":{"ha":331,"x_min":22,"x_max":308,"o":"m 22 444 l 308 444 l 308 413 l 22 413 l 22 444 z "},"‐":{"ha":331,"x_min":22,"x_max":308,"o":"m 22 444 l 308 444 l 308 413 l 22 413 l 22 444 z "},"­":{"ha":331,"x_min":22,"x_max":308,"o":"m 22 444 l 308 444 l 308 413 l 22 413 l 22 444 z "},"–":{"ha":567,"x_min":22,"x_max":544,"o":"m 22 444 l 544 444 l 544 413 l 22 413 l 22 444 z "},"—":{"ha":969,"x_min":22,"x_max":947,"o":"m 22 444 l 947 444 l 947 413 l 22 413 l 22 444 z "},"_":{"ha":581,"x_min":22,"x_max":558,"o":"m 22 -114 l 558 -114 l 558 -146 l 22 -146 l 22 -114 z "},"(":{"ha":267,"x_min":69,"x_max":247,"o":"m 211 -137 q 103 158 138 14 q 69 460 69 303 q 103 761 69 617 q 211 1057 138 906 l 247 1057 q 139 760 174 906 q 104 460 104 614 q 139 160 104 306 q 247 -137 174 14 l 211 -137 z "},")":{"ha":267,"x_min":19,"x_max":197,"o":"m 19 -137 q 128 160 93 14 q 163 460 163 306 q 128 760 163 614 q 19 1057 93 906 l 56 1057 q 163 761 129 906 q 197 460 197 617 q 163 158 197 303 q 56 -137 129 14 l 19 -137 z "},"{":{"ha":514,"x_min":35,"x_max":494,"o":"m 392 -132 q 279 -85 317 -132 q 242 56 242 -39 l 242 307 q 208 432 242 394 q 94 469 174 469 l 35 469 l 35 500 l 94 500 q 208 538 174 500 q 242 663 242 575 l 242 876 q 279 1017 242 971 q 392 1064 317 1064 q 494 1046 436 1064 l 494 1011 q 392 1033 436 1033 q 303 996 332 1033 q 275 881 275 958 l 275 660 q 248 540 275 579 q 169 488 221 500 l 169 485 q 248 433 221 472 q 275 313 275 393 l 275 51 q 303 -64 275 -26 q 392 -101 332 -101 q 494 -79 436 -101 l 494 -114 q 392 -132 436 -132 z "},"}":{"ha":514,"x_min":19,"x_max":479,"o":"m 122 -132 q 19 -114 78 -132 l 19 -79 q 122 -101 78 -101 q 210 -64 182 -101 q 239 51 239 -26 l 239 310 q 266 430 239 390 q 344 482 293 469 l 344 485 q 266 537 293 497 q 239 657 239 576 l 239 881 q 210 996 239 958 q 122 1033 182 1033 q 19 1011 78 1033 l 19 1046 q 122 1064 78 1064 q 235 1017 197 1064 q 272 876 272 971 l 272 663 q 306 538 272 575 q 419 500 340 500 l 479 500 l 479 469 l 419 469 q 306 432 340 469 q 272 307 272 394 l 272 56 q 235 -85 272 -39 q 122 -132 197 -132 z "},"[":{"ha":282,"x_min":97,"x_max":254,"o":"m 97 1057 l 254 1057 l 254 1026 l 129 1026 l 129 -94 l 254 -94 l 254 -125 l 97 -125 l 97 1057 z "},"]":{"ha":282,"x_min":28,"x_max":185,"o":"m 28 -94 l 153 -94 l 153 1026 l 28 1026 l 28 1057 l 185 1057 l 185 -125 l 28 -125 l 28 -94 z "},"‚":{"ha":190,"x_min":33,"x_max":147,"o":"m 33 -153 q 90 -62 72 -106 q 108 32 108 -18 l 117 -7 q 69 1 86 -12 q 51 38 51 14 q 57 62 51 51 q 74 78 63 72 q 99 85 85 85 q 134 69 121 85 q 147 22 147 53 q 138 -31 147 -1 q 105 -94 129 -61 q 38 -158 81 -128 l 33 -153 z "},"„":{"ha":328,"x_min":33,"x_max":285,"o":"m 171 -153 q 228 -62 210 -106 q 246 32 246 -18 l 254 -7 q 206 1 224 -12 q 189 38 189 14 q 194 62 189 51 q 211 78 200 72 q 236 85 222 85 q 272 69 258 85 q 285 22 285 53 q 276 -31 285 -1 q 242 -94 267 -61 q 175 -158 218 -128 l 171 -153 m 33 -153 q 90 -62 72 -106 q 108 32 108 -18 l 117 -7 q 69 1 86 -12 q 51 38 51 14 q 57 62 51 51 q 74 78 63 72 q 99 85 85 85 q 134 69 121 85 q 147 22 147 53 q 138 -31 147 -1 q 105 -94 129 -61 q 38 -158 81 -128 l 33 -153 z "},"“":{"ha":329,"x_min":47,"x_max":299,"o":"m 233 749 q 198 765 211 749 q 185 811 185 781 q 194 865 185 835 q 227 928 203 894 q 294 992 251 961 l 299 986 q 242 895 260 939 q 224 801 224 851 l 215 840 q 263 833 246 846 q 281 796 281 819 q 275 772 281 782 q 258 755 269 761 q 233 749 247 749 m 96 749 q 60 765 74 749 q 47 811 47 781 q 56 865 47 835 q 90 928 65 894 q 157 992 114 961 l 161 986 q 104 895 122 939 q 86 801 86 851 l 78 840 q 126 833 108 846 q 143 796 143 819 q 138 772 143 782 q 121 755 132 761 q 96 749 110 749 z "},"”":{"ha":328,"x_min":35,"x_max":286,"o":"m 172 738 q 229 828 211 785 q 247 922 247 872 l 256 883 q 208 891 225 878 q 190 928 190 904 q 196 952 190 942 q 213 969 201 963 q 238 975 224 975 q 273 959 260 975 q 286 913 286 943 q 277 859 286 889 q 244 796 268 829 q 176 732 219 763 l 172 738 m 35 738 q 92 828 74 785 q 110 922 110 872 l 118 883 q 70 891 88 878 q 53 928 53 904 q 58 952 53 942 q 75 969 64 963 q 100 975 86 975 q 135 959 122 975 q 149 913 149 943 q 140 859 149 889 q 106 796 131 829 q 39 732 82 763 l 35 738 z "},"‘":{"ha":192,"x_min":47,"x_max":161,"o":"m 96 749 q 60 765 74 749 q 47 811 47 781 q 56 865 47 835 q 90 928 65 894 q 157 992 114 961 l 161 986 q 104 895 122 939 q 86 801 86 851 l 78 840 q 126 833 108 846 q 143 796 143 819 q 138 772 143 782 q 121 755 132 761 q 96 749 110 749 z "},"’":{"ha":190,"x_min":35,"x_max":149,"o":"m 35 738 q 92 828 74 785 q 110 922 110 872 l 118 883 q 70 891 88 878 q 53 928 53 904 q 58 952 53 942 q 75 969 64 963 q 100 975 86 975 q 135 959 122 975 q 149 913 149 943 q 140 859 149 889 q 106 796 131 829 q 39 732 82 763 l 35 738 z "},"«":{"ha":471,"x_min":31,"x_max":429,"o":"m 31 374 l 233 642 l 272 642 l 63 361 l 63 389 l 276 103 l 236 103 l 31 374 m 183 374 l 386 642 l 425 642 l 215 361 l 215 389 l 429 103 l 389 103 l 183 374 z "},"»":{"ha":471,"x_min":42,"x_max":440,"o":"m 408 383 l 408 356 l 194 642 l 235 642 l 440 371 l 238 103 l 199 103 l 408 383 m 256 383 l 256 356 l 42 642 l 82 642 l 288 371 l 85 103 l 46 103 l 256 383 z "},"‹":{"ha":318,"x_min":31,"x_max":276,"o":"m 31 374 l 233 642 l 272 642 l 63 361 l 63 389 l 276 103 l 236 103 l 31 374 z "},"›":{"ha":332,"x_min":42,"x_max":288,"o":"m 256 383 l 256 356 l 42 642 l 82 642 l 288 371 l 85 103 l 46 103 l 256 383 z "},"\"":{"ha":299,"x_min":69,"x_max":229,"o":"m 69 969 l 104 969 l 101 663 l 72 663 l 69 969 m 194 969 l 229 969 l 226 663 l 197 663 l 194 969 z "},"'":{"ha":174,"x_min":69,"x_max":104,"o":"m 69 969 l 104 969 l 101 663 l 72 663 l 69 969 z "},"ƒ":{"ha":401,"x_min":-33,"x_max":374,"o":"m 44 -194 q -33 -181 8 -194 l -33 -143 q 42 -161 6 -161 q 102 -139 82 -161 q 122 -72 122 -117 l 122 788 q 164 933 122 886 q 286 981 206 981 q 374 965 332 981 l 374 928 q 286 947 335 947 q 188 909 219 947 q 157 786 157 871 l 157 -75 q 128 -164 157 -133 q 44 -194 99 -194 m 42 731 l 346 731 l 346 697 l 42 697 l 42 731 z "},"@":{"ha":1303,"x_min":42,"x_max":1261,"o":"m 651 -201 q 335 -124 474 -201 q 119 93 197 -47 q 42 414 42 233 q 119 733 42 594 q 334 948 196 872 q 650 1024 472 1024 q 967 949 829 1024 q 1183 736 1106 875 q 1261 410 1261 597 q 1239 239 1261 310 q 1174 132 1217 168 q 1068 96 1131 96 q 961 138 1000 96 q 917 269 922 181 l 914 269 q 812 131 883 181 q 639 81 740 81 q 476 124 546 81 q 370 242 407 167 q 333 410 333 317 q 370 579 333 504 q 476 697 407 654 q 639 739 546 739 q 813 686 742 739 q 913 542 885 633 l 915 542 l 915 731 l 949 731 l 949 304 q 978 172 949 215 q 1068 128 1008 128 q 1155 160 1119 128 q 1208 255 1190 192 q 1226 410 1226 318 q 1153 721 1226 589 q 951 922 1081 853 q 650 992 821 992 q 351 920 481 992 q 149 717 221 849 q 76 414 76 586 q 149 109 76 242 q 352 -96 221 -24 q 651 -168 483 -168 q 821 -147 740 -168 q 969 -86 901 -126 l 969 -128 q 818 -182 899 -162 q 651 -201 738 -201 m 639 113 q 781 150 718 113 q 878 256 843 188 q 914 410 914 324 q 878 565 914 497 q 781 669 843 632 q 639 707 718 707 q 497 669 558 707 q 402 565 436 632 q 368 410 368 497 q 402 256 368 324 q 497 150 436 188 q 639 113 558 113 z "},"&":{"ha":685,"x_min":42,"x_max":663,"o":"m 299 -6 q 164 26 222 -6 q 74 115 106 58 q 42 247 42 172 q 69 370 42 315 q 145 461 96 425 q 260 508 194 497 l 260 511 q 126 592 174 533 q 79 736 79 650 q 113 862 79 807 q 208 947 147 917 q 350 976 269 976 q 536 936 440 976 l 536 900 q 353 943 442 943 q 228 918 282 943 q 144 847 174 893 q 115 738 115 800 q 181 583 115 642 q 351 524 246 524 l 663 524 l 663 490 l 351 490 q 206 462 267 490 q 111 379 144 433 q 78 251 78 325 q 138 89 78 150 q 301 28 199 28 q 472 93 408 28 q 536 268 536 158 l 536 503 l 571 503 l 571 0 l 536 0 l 536 133 l 533 133 q 442 31 504 68 q 299 -6 381 -6 m 536 681 l 571 681 l 571 517 l 536 517 l 536 681 z "},"¶":{"ha":514,"x_min":31,"x_max":431,"o":"m 271 515 l 283 500 q 149 526 206 499 q 61 606 92 553 q 31 735 31 660 q 60 860 31 807 q 143 941 89 913 q 271 969 197 969 l 306 969 l 306 -187 l 271 -187 l 271 515 m 396 969 l 431 969 l 431 -187 l 396 -187 l 396 969 z "},"§":{"ha":494,"x_min":28,"x_max":456,"o":"m 192 -181 q 117 -172 154 -181 q 47 -147 79 -164 l 47 -107 q 118 -137 81 -126 q 194 -147 156 -147 q 294 -125 251 -147 q 359 -61 336 -103 q 382 38 382 -19 q 345 162 382 107 q 228 267 308 217 l 160 310 q 60 402 92 353 q 28 514 28 451 q 49 610 28 565 q 114 694 71 656 l 133 664 q 82 596 100 635 q 64 513 64 557 q 92 417 64 460 q 185 335 121 374 l 239 301 q 375 181 332 244 q 418 39 418 118 q 390 -76 418 -26 q 310 -153 361 -126 q 192 -181 260 -181 m 357 171 q 404 244 388 204 q 421 326 421 283 q 388 438 421 388 q 285 531 354 488 l 213 575 q 102 674 138 621 q 67 792 67 726 q 92 893 67 850 q 164 960 118 936 q 271 983 210 983 q 327 978 299 983 q 385 964 356 974 l 385 926 q 328 944 357 938 q 269 950 299 950 q 147 908 192 950 q 103 792 103 867 q 134 689 103 733 q 238 600 165 644 l 303 560 q 418 454 381 511 q 456 326 456 397 q 435 225 456 272 q 372 136 414 178 l 357 171 z "},"©":{"ha":1303,"x_min":42,"x_max":1261,"o":"m 651 -194 q 336 -115 475 -194 q 119 106 197 -36 q 42 429 42 249 q 119 752 42 610 q 336 974 197 894 q 651 1053 475 1053 q 968 974 829 1053 q 1184 753 1107 894 q 1261 429 1261 611 q 1184 106 1261 247 q 968 -115 1107 -36 q 651 -194 829 -194 m 688 92 q 519 135 593 92 q 404 254 446 178 q 363 429 363 331 q 404 604 363 528 q 519 724 446 681 q 688 767 593 767 q 843 735 771 767 l 843 697 q 769 725 808 715 q 688 735 729 735 q 537 696 603 735 q 434 588 471 657 q 397 429 397 518 q 434 271 397 340 q 537 163 471 201 q 688 124 603 124 q 769 133 729 124 q 843 161 808 143 l 843 124 q 688 92 771 92 m 651 -161 q 951 -87 821 -161 q 1154 122 1082 -12 q 1226 429 1226 256 q 1154 738 1226 603 q 951 947 1082 872 q 651 1021 821 1021 q 353 946 483 1021 q 149 736 222 871 q 76 429 76 601 q 149 122 76 256 q 353 -87 222 -12 q 651 -161 483 -161 z "},"®":{"ha":981,"x_min":47,"x_max":933,"o":"m 490 182 q 259 238 360 182 q 103 393 158 293 q 47 624 47 493 q 103 854 47 754 q 259 1010 158 954 q 490 1065 360 1065 q 722 1010 621 1065 q 878 854 822 954 q 933 624 933 754 q 878 393 933 493 q 722 238 822 293 q 490 182 621 182 m 490 213 q 705 264 613 213 q 849 408 797 315 q 900 624 900 501 q 849 839 900 746 q 705 983 797 932 q 490 1035 613 1035 q 276 983 369 1035 q 132 838 183 932 q 81 624 81 744 q 132 408 81 501 q 276 264 183 315 q 490 213 369 213 m 368 890 l 488 890 q 599 856 558 890 q 639 760 639 821 q 611 673 639 708 q 536 628 583 638 l 536 625 q 603 588 581 619 q 626 504 626 557 l 626 375 l 593 375 l 593 501 q 566 585 593 560 q 478 610 539 610 l 385 610 l 385 640 l 481 640 q 571 672 538 640 q 604 757 604 704 q 572 833 604 807 q 481 860 540 860 l 389 860 l 401 871 l 401 375 l 368 375 l 368 890 z "},"™":{"ha":814,"x_min":28,"x_max":767,"o":"m 369 969 l 422 969 l 567 578 l 569 578 l 715 969 l 767 969 l 767 551 l 733 551 l 733 926 l 731 926 l 590 551 l 543 551 l 404 926 l 401 926 l 401 551 l 369 551 l 369 969 m 140 956 l 174 956 l 174 551 l 140 551 l 140 956 m 28 969 l 283 969 l 283 938 l 28 938 l 28 969 z "},"°":{"ha":472,"x_min":42,"x_max":431,"o":"m 236 603 q 136 628 181 603 q 67 698 92 653 q 42 800 42 743 q 67 902 42 857 q 136 972 92 947 q 236 997 181 997 q 336 972 292 997 q 406 902 381 947 q 431 800 431 857 q 406 698 431 743 q 336 628 381 653 q 236 603 292 603 m 236 635 q 319 656 283 635 q 376 714 356 676 q 396 800 396 751 q 351 919 396 874 q 236 965 307 965 q 153 944 189 965 q 97 886 117 924 q 76 800 76 849 q 121 681 76 726 q 236 635 165 635 z "},"|":{"ha":189,"x_min":78,"x_max":111,"o":"m 78 1057 l 111 1057 l 111 -125 l 78 -125 l 78 1057 z "},"¦":{"ha":178,"x_min":72,"x_max":106,"o":"m 72 1057 l 106 1057 l 106 578 l 72 578 l 72 1057 m 72 354 l 106 354 l 106 -125 l 72 -125 l 72 354 z "},"†":{"ha":411,"x_min":36,"x_max":375,"o":"m 189 1057 l 222 1057 l 222 429 l 189 429 l 189 1057 m 36 881 l 375 881 l 375 849 l 36 849 l 36 881 z "},"‡":{"ha":411,"x_min":36,"x_max":375,"o":"m 189 1057 l 222 1057 l 222 429 l 189 429 l 189 1057 m 36 624 l 375 624 l 375 592 l 36 592 l 36 624 m 36 894 l 375 894 l 375 863 l 36 863 l 36 894 z "},"¢":{"ha":499,"x_min":36,"x_max":474,"o":"m 322 192 q 173 229 238 192 q 72 333 108 267 q 36 485 36 400 q 72 636 36 569 q 173 740 108 703 q 322 778 238 778 q 474 743 404 778 l 474 703 q 322 744 407 744 q 192 712 249 744 q 103 620 135 679 q 72 485 72 561 q 141 297 72 369 q 322 225 210 225 q 474 267 407 225 l 474 226 q 322 192 404 192 m 297 210 l 331 210 l 331 0 l 297 0 l 297 210 m 297 969 l 331 969 l 331 760 l 297 760 l 297 969 z "},"¤":{"ha":769,"x_min":50,"x_max":719,"o":"m 385 178 q 231 217 299 178 q 126 326 164 256 q 89 485 89 396 q 126 644 89 574 q 231 753 164 714 q 385 792 299 792 q 538 753 471 792 q 643 644 606 714 q 681 485 681 574 q 643 326 681 396 q 538 217 606 256 q 385 178 471 178 m 50 174 l 168 292 l 192 268 l 74 150 l 50 174 m 578 268 l 601 292 l 719 174 l 696 150 l 578 268 m 385 210 q 520 244 461 210 q 613 342 579 279 q 646 485 646 404 q 613 628 646 565 q 520 725 579 690 q 385 760 461 760 q 249 725 308 760 q 157 628 190 690 q 124 485 124 565 q 157 342 124 404 q 249 244 190 279 q 385 210 308 210 m 50 796 l 74 819 l 192 701 l 168 678 l 50 796 m 578 701 l 696 819 l 719 796 l 601 678 l 578 701 z "},"$":{"ha":447,"x_min":29,"x_max":400,"o":"m 174 -11 q 100 -3 138 -11 q 29 22 63 6 l 29 63 q 176 22 97 22 q 273 44 231 22 q 340 109 315 67 q 364 211 364 151 q 337 327 364 272 q 253 447 310 382 l 146 568 q 72 676 96 626 q 49 781 49 725 q 74 887 49 842 q 147 956 100 932 q 254 981 193 981 q 367 961 308 981 l 367 924 q 310 941 339 935 q 250 947 281 947 q 129 903 174 947 q 85 782 85 860 q 106 687 85 731 q 176 588 128 643 l 285 465 q 372 340 343 399 q 400 214 400 281 q 372 94 400 144 q 292 16 343 43 q 174 -11 240 -11 m 188 -1 l 221 -1 l 221 -139 l 188 -139 l 188 -1 m 213 1085 l 246 1085 l 246 958 l 213 958 l 213 1085 z "},"€":{"ha":831,"x_min":35,"x_max":799,"o":"m 621 -7 q 384 55 488 -7 q 223 228 281 117 q 165 485 165 340 q 223 741 165 629 q 384 915 281 853 q 621 976 488 976 q 799 946 719 976 l 799 910 q 621 943 718 943 q 401 886 496 943 q 253 725 306 829 q 201 485 201 621 q 253 244 201 349 q 401 83 306 140 q 621 26 496 26 q 799 60 718 26 l 799 22 q 621 -7 718 -7 m 35 421 l 633 421 l 622 389 l 199 389 l 185 389 l 35 389 l 35 421 m 35 592 l 185 592 l 199 592 l 661 592 l 650 560 l 35 560 l 35 592 z "},"£":{"ha":628,"x_min":50,"x_max":575,"o":"m 50 24 q 139 156 111 99 q 170 271 167 213 q 157 411 174 329 l 110 644 q 113 819 90 743 q 193 938 135 896 q 336 981 251 981 q 510 913 446 981 q 575 731 575 844 l 539 731 q 484 889 539 831 q 335 947 429 947 q 210 910 260 947 q 144 804 161 872 q 144 644 126 736 l 192 411 q 193 207 215 292 q 85 18 171 122 l 74 33 l 569 33 l 569 0 l 50 0 l 50 24 m 50 471 l 489 471 l 489 438 l 50 438 l 50 471 z "},"¥":{"ha":569,"x_min":50,"x_max":519,"o":"m 267 349 l 50 969 l 88 969 l 283 396 l 286 396 l 483 969 l 519 969 l 301 349 l 301 0 l 267 0 l 267 349 m 71 350 l 500 350 l 500 319 l 71 319 l 71 350 m 71 479 l 246 476 l 246 447 l 71 447 l 71 479 m 324 476 l 500 479 l 500 447 l 324 447 l 324 476 z "},"+":{"ha":767,"x_min":119,"x_max":647,"o":"m 367 731 l 401 731 l 401 161 l 367 161 l 367 731 m 119 463 l 647 463 l 647 429 l 119 429 l 119 463 z "},"−":{"ha":767,"x_min":119,"x_max":647,"o":"m 119 463 l 647 463 l 647 429 l 119 429 l 119 463 z "},"×":{"ha":767,"x_min":171,"x_max":597,"o":"m 171 635 l 194 660 l 597 257 l 572 233 l 171 635 m 171 257 l 572 658 l 596 635 l 194 233 l 171 257 z "},"÷":{"ha":767,"x_min":119,"x_max":647,"o":"m 119 463 l 647 463 l 647 429 l 119 429 l 119 463 m 383 588 q 354 599 365 588 q 343 629 343 611 q 354 658 343 647 q 383 669 365 669 q 412 658 400 669 q 424 629 424 647 q 412 599 424 611 q 383 588 400 588 m 383 222 q 354 234 365 222 q 343 264 343 246 q 354 293 343 282 q 383 304 365 304 q 412 293 400 304 q 424 264 424 282 q 412 234 424 246 q 383 222 400 222 z "},"=":{"ha":767,"x_min":119,"x_max":647,"o":"m 119 574 l 647 574 l 647 540 l 119 540 l 119 574 m 119 351 l 647 351 l 647 318 l 119 318 l 119 351 z "},">":{"ha":767,"x_min":113,"x_max":661,"o":"m 113 215 l 626 443 l 626 446 l 113 676 l 113 714 l 661 467 l 661 422 l 113 176 l 113 215 z "},"<":{"ha":767,"x_min":106,"x_max":654,"o":"m 106 424 l 106 468 l 654 714 l 654 675 l 140 447 l 140 444 l 654 214 l 654 176 l 106 424 z "},"±":{"ha":767,"x_min":119,"x_max":647,"o":"m 367 842 l 401 842 l 401 328 l 367 328 l 367 842 m 119 601 l 647 601 l 647 568 l 119 568 l 119 601 m 119 213 l 647 213 l 647 179 l 119 179 l 119 213 z "},"~":{"ha":667,"x_min":83,"x_max":583,"o":"m 460 393 q 392 408 422 393 q 324 449 361 422 q 261 488 288 475 q 204 500 235 500 q 140 474 164 500 q 117 403 117 449 l 83 403 q 117 498 83 463 q 207 533 151 533 q 272 519 243 533 q 344 478 301 506 q 406 440 379 453 q 463 426 432 426 q 526 452 503 426 q 550 524 550 478 l 583 524 q 549 428 583 464 q 460 393 515 393 z "},"¬":{"ha":767,"x_min":119,"x_max":647,"o":"m 613 513 l 119 513 l 119 546 l 647 546 l 647 272 l 613 272 l 613 513 z "},"^":{"ha":639,"x_min":104,"x_max":535,"o":"m 311 1024 l 331 1024 l 535 682 l 496 682 l 322 976 l 319 976 l 143 682 l 104 682 l 311 1024 z "},"µ":{"ha":613,"x_min":76,"x_max":536,"o":"m 76 731 l 110 731 l 110 242 q 158 83 110 142 q 296 24 207 24 q 447 89 392 24 q 503 260 503 154 l 503 731 l 536 731 l 536 0 l 506 0 l 506 138 l 503 138 q 423 31 478 69 q 292 -7 368 -7 q 167 28 218 -7 q 94 128 117 64 l 107 138 l 107 -187 l 76 -187 l 76 731 z "},"%":{"ha":856,"x_min":28,"x_max":828,"o":"m 633 -11 q 533 17 578 -11 q 464 96 489 44 q 439 214 439 147 q 464 332 439 281 q 533 411 489 383 q 633 439 578 439 q 733 411 689 439 q 803 332 778 383 q 828 214 828 281 q 803 96 828 147 q 733 17 778 44 q 633 -11 689 -11 m 351 429 l 390 429 l 96 0 l 54 0 l 351 429 m 222 531 q 122 558 167 531 q 53 638 78 586 q 28 756 28 689 q 53 874 28 822 q 122 953 78 925 q 222 981 167 981 q 322 953 278 981 q 392 874 367 925 q 417 756 417 822 q 392 638 417 689 q 322 558 367 586 q 222 531 278 531 m 222 563 q 306 587 269 563 q 362 655 342 611 q 382 756 382 699 q 338 896 382 843 q 222 949 293 949 q 139 924 175 949 q 83 856 103 900 q 63 756 63 813 q 107 615 63 668 q 222 563 151 563 m 633 21 q 717 45 681 21 q 773 113 753 69 q 793 214 793 157 q 749 354 793 301 q 633 407 704 407 q 550 383 586 407 q 494 315 514 358 q 474 214 474 271 q 518 74 474 126 q 633 21 563 21 m 760 969 l 801 969 l 504 540 l 465 540 l 760 969 z "},"‰":{"ha":1233,"x_min":28,"x_max":1217,"o":"m 619 -11 q 489 50 539 -11 q 439 214 439 111 q 462 333 439 282 q 526 412 485 385 q 619 439 567 439 q 750 378 700 439 q 800 214 800 317 q 777 94 800 146 q 713 16 754 43 q 619 -11 672 -11 m 351 429 l 390 429 l 96 0 l 54 0 l 351 429 m 222 531 q 122 558 167 531 q 53 638 78 586 q 28 756 28 689 q 53 874 28 822 q 122 953 78 925 q 222 981 167 981 q 322 953 278 981 q 392 874 367 925 q 417 756 417 822 q 392 638 417 689 q 322 558 367 586 q 222 531 278 531 m 222 563 q 306 587 269 563 q 362 655 342 611 q 382 756 382 699 q 338 896 382 843 q 222 949 293 949 q 139 924 175 949 q 83 856 103 900 q 63 756 63 813 q 107 615 63 668 q 222 563 151 563 m 619 21 q 696 44 663 21 q 747 112 729 68 q 765 214 765 156 q 725 354 765 301 q 619 407 685 407 q 543 383 576 407 q 492 316 510 360 q 474 214 474 272 q 514 74 474 126 q 619 21 554 21 m 760 969 l 801 969 l 504 540 l 465 540 l 760 969 m 1036 -11 q 906 50 956 -11 q 856 214 856 111 q 878 333 856 282 q 942 412 901 385 q 1036 439 983 439 q 1167 378 1117 439 q 1217 214 1217 317 q 1194 94 1217 146 q 1130 16 1171 43 q 1036 -11 1089 -11 m 1036 21 q 1113 44 1079 21 q 1164 112 1146 68 q 1182 214 1182 156 q 1142 354 1182 301 q 1036 407 1101 407 q 960 383 993 407 q 908 316 926 360 q 890 214 890 272 q 931 74 890 126 q 1036 21 971 21 z "},"↑":{"ha":906,"x_min":28,"x_max":878,"o":"m 439 828 l 443 926 l 440 928 l 28 567 l 28 608 l 454 981 l 878 608 l 878 567 l 469 926 l 467 925 l 471 828 l 471 0 l 439 0 l 439 828 z "},"↗":{"ha":875,"x_min":28,"x_max":817,"o":"m 817 378 l 786 349 l 786 915 l 782 917 l 719 851 l 51 182 l 28 206 l 697 874 l 764 935 l 763 939 l 196 939 l 225 969 l 817 969 l 817 378 z "},"→":{"ha":888,"x_min":28,"x_max":874,"o":"m 821 471 l 819 474 l 721 469 l 28 469 l 28 501 l 721 501 l 818 497 l 819 500 l 460 910 l 501 910 l 874 485 l 501 60 l 460 60 l 821 471 z "},"↘":{"ha":875,"x_min":28,"x_max":817,"o":"m 196 31 l 763 31 l 764 35 l 697 96 l 28 764 l 51 788 l 719 118 l 782 53 l 786 54 l 786 621 l 817 592 l 817 0 l 225 0 l 196 31 z "},"↓":{"ha":906,"x_min":28,"x_max":878,"o":"m 467 142 l 463 43 l 465 42 l 878 403 l 878 361 l 451 -11 l 28 361 l 28 403 l 436 43 l 439 44 l 435 142 l 435 969 l 467 969 l 467 142 z "},"↙":{"ha":875,"x_min":58,"x_max":847,"o":"m 58 592 l 89 621 l 89 54 l 93 53 l 156 118 l 824 788 l 847 764 l 178 96 l 111 35 l 113 31 l 679 31 l 650 0 l 58 0 l 58 592 z "},"←":{"ha":888,"x_min":14,"x_max":860,"o":"m 67 499 l 68 496 l 167 500 l 860 500 l 860 468 l 167 468 l 69 472 l 68 469 l 428 60 l 386 60 l 14 485 l 386 910 l 428 910 l 67 499 z "},"↖":{"ha":875,"x_min":58,"x_max":847,"o":"m 679 939 l 113 939 l 111 935 l 178 874 l 847 206 l 824 182 l 156 851 l 93 917 l 89 915 l 89 349 l 58 378 l 58 969 l 650 969 l 679 939 z "},"↔":{"ha":1415,"x_min":14,"x_max":1401,"o":"m 14 485 l 386 910 l 428 910 l 67 499 l 68 496 l 167 501 l 1249 501 l 1346 497 l 1347 500 l 988 910 l 1029 910 l 1401 485 l 1029 60 l 988 60 l 1349 471 l 1347 474 l 1249 469 l 167 469 l 69 472 l 68 469 l 428 60 l 386 60 l 14 485 z "},"↕":{"ha":1004,"x_min":75,"x_max":929,"o":"m 79 150 l 79 192 l 488 -168 l 490 -167 l 486 -69 l 486 986 l 490 1085 l 488 1086 l 75 725 l 75 767 l 501 1139 l 925 767 l 925 725 l 517 1085 l 514 1083 l 518 986 l 518 -69 l 514 -168 l 517 -169 l 929 192 l 929 150 l 503 -222 l 79 150 z "},"̈":{"ha":0,"x_min":251,"x_max":582,"o":"m 292 842 q 263 853 275 842 q 251 882 251 864 q 263 911 251 900 q 292 922 275 922 q 320 911 308 922 q 332 882 332 900 q 320 853 332 864 q 292 842 308 842 m 542 842 q 513 853 525 842 q 501 882 501 864 q 513 911 501 900 q 542 922 525 922 q 570 911 558 922 q 582 882 582 900 q 570 853 582 864 q 542 842 558 842 z "},"̇":{"ha":0,"x_min":375,"x_max":458,"o":"m 417 843 q 387 855 399 843 q 375 885 375 867 q 387 915 375 903 q 417 926 399 926 q 447 915 435 926 q 458 885 458 903 q 447 855 458 867 q 417 843 435 843 z "},"̀":{"ha":0,"x_min":286,"x_max":449,"o":"m 286 997 l 326 997 l 449 807 l 411 807 l 286 997 z "},"́":{"ha":0,"x_min":385,"x_max":546,"o":"m 507 997 l 546 997 l 421 807 l 385 807 l 507 997 z "},"̋":{"ha":0,"x_min":310,"x_max":610,"o":"m 379 997 l 415 997 l 342 807 l 310 807 l 379 997 m 574 997 l 610 997 l 524 807 l 490 807 l 574 997 z "},"̂":{"ha":0,"x_min":251,"x_max":583,"o":"m 399 997 l 436 997 l 583 807 l 543 807 l 418 971 l 415 971 l 290 807 l 251 807 l 399 997 z "},"̌":{"ha":0,"x_min":251,"x_max":583,"o":"m 251 989 l 292 989 l 417 825 l 419 825 l 544 989 l 583 989 l 436 799 l 399 799 l 251 989 z "},"̆":{"ha":0,"x_min":264,"x_max":569,"o":"m 417 815 q 310 852 351 815 q 264 954 268 889 l 294 954 q 333 876 300 904 q 417 847 365 847 q 501 876 468 847 q 539 954 533 904 l 569 954 q 524 852 565 889 q 417 815 482 815 z "},"̊":{"ha":0,"x_min":294,"x_max":539,"o":"m 417 819 q 329 853 364 819 q 294 940 294 888 q 329 1027 294 993 q 417 1061 364 1061 q 504 1027 469 1061 q 539 940 539 993 q 504 853 539 888 q 417 819 469 819 m 417 849 q 482 874 457 849 q 507 940 507 900 q 482 1006 507 981 q 417 1032 457 1032 q 351 1006 376 1032 q 326 940 326 981 q 351 874 326 900 q 417 849 376 849 z "},"̃":{"ha":0,"x_min":224,"x_max":610,"o":"m 511 817 q 460 827 482 817 q 407 858 439 838 q 361 887 381 878 q 319 896 342 896 q 273 878 290 896 q 254 824 256 860 l 224 824 q 251 899 224 871 q 322 926 278 926 q 373 916 351 926 q 426 885 394 906 q 472 856 453 865 q 514 847 492 847 q 560 865 543 847 q 579 919 578 883 l 610 919 q 583 844 610 872 q 511 817 556 817 z "},"̄":{"ha":0,"x_min":233,"x_max":600,"o":"m 233 896 l 600 896 l 600 865 l 233 865 l 233 896 z "},"̒":{"ha":0,"x_min":396,"x_max":483,"o":"m 453 997 l 483 997 l 431 807 l 396 807 l 453 997 z "},"̦":{"ha":0,"x_min":353,"x_max":436,"o":"m 401 -69 l 436 -69 l 383 -243 l 353 -243 l 401 -69 z "},"̧":{"ha":0,"x_min":306,"x_max":438,"o":"m 306 -203 l 408 22 l 438 11 l 338 -215 l 306 -203 z "},"̨":{"ha":0,"x_min":269,"x_max":417,"o":"m 369 -228 q 297 -201 325 -228 q 269 -129 269 -174 q 306 -36 269 -78 q 400 21 343 6 l 417 0 q 362 -17 389 0 q 317 -63 335 -35 q 300 -125 300 -92 q 320 -179 300 -160 q 375 -199 340 -199 q 417 -192 397 -199 l 417 -219 q 369 -228 394 -228 z "},"¨":{"ha":833,"x_min":251,"x_max":582,"o":"m 292 842 q 263 853 275 842 q 251 882 251 864 q 263 911 251 900 q 292 922 275 922 q 320 911 308 922 q 332 882 332 900 q 320 853 332 864 q 292 842 308 842 m 542 842 q 513 853 525 842 q 501 882 501 864 q 513 911 501 900 q 542 922 525 922 q 570 911 558 922 q 582 882 582 900 q 570 853 582 864 q 542 842 558 842 z "},"˙":{"ha":833,"x_min":375,"x_max":458,"o":"m 417 843 q 387 855 399 843 q 375 885 375 867 q 387 915 375 903 q 417 926 399 926 q 447 915 435 926 q 458 885 458 903 q 447 855 458 867 q 417 843 435 843 z "},"`":{"ha":833,"x_min":286,"x_max":449,"o":"m 286 997 l 326 997 l 449 807 l 411 807 l 286 997 z "},"´":{"ha":833,"x_min":385,"x_max":546,"o":"m 507 997 l 546 997 l 421 807 l 385 807 l 507 997 z "},"˝":{"ha":833,"x_min":310,"x_max":610,"o":"m 379 997 l 415 997 l 342 807 l 310 807 l 379 997 m 574 997 l 610 997 l 524 807 l 490 807 l 574 997 z "},"ˆ":{"ha":833,"x_min":251,"x_max":583,"o":"m 399 997 l 436 997 l 583 807 l 543 807 l 418 971 l 415 971 l 290 807 l 251 807 l 399 997 z "},"ˇ":{"ha":833,"x_min":251,"x_max":583,"o":"m 251 989 l 292 989 l 417 825 l 419 825 l 544 989 l 583 989 l 436 799 l 399 799 l 251 989 z "},"˘":{"ha":833,"x_min":264,"x_max":569,"o":"m 417 815 q 310 852 351 815 q 264 954 268 889 l 294 954 q 333 876 300 904 q 417 847 365 847 q 501 876 468 847 q 539 954 533 904 l 569 954 q 524 852 565 889 q 417 815 482 815 z "},"˚":{"ha":833,"x_min":294,"x_max":539,"o":"m 417 819 q 329 853 364 819 q 294 940 294 888 q 329 1027 294 993 q 417 1061 364 1061 q 504 1027 469 1061 q 539 940 539 993 q 504 853 539 888 q 417 819 469 819 m 417 849 q 482 874 457 849 q 507 940 507 900 q 482 1006 507 981 q 417 1032 457 1032 q 351 1006 376 1032 q 326 940 326 981 q 351 874 326 900 q 417 849 376 849 z "},"˜":{"ha":833,"x_min":224,"x_max":610,"o":"m 511 817 q 460 827 482 817 q 407 858 439 838 q 361 887 381 878 q 319 896 342 896 q 273 878 290 896 q 254 824 256 860 l 224 824 q 251 899 224 871 q 322 926 278 926 q 373 916 351 926 q 426 885 394 906 q 472 856 453 865 q 514 847 492 847 q 560 865 543 847 q 579 919 578 883 l 610 919 q 583 844 610 872 q 511 817 556 817 z "},"¯":{"ha":833,"x_min":233,"x_max":600,"o":"m 233 896 l 600 896 l 600 865 l 233 865 l 233 896 z "},"¸":{"ha":833,"x_min":306,"x_max":438,"o":"m 306 -203 l 408 22 l 438 11 l 338 -215 l 306 -203 z "},"˛":{"ha":833,"x_min":269,"x_max":417,"o":"m 369 -228 q 297 -201 325 -228 q 269 -129 269 -174 q 306 -36 269 -78 q 400 21 343 6 l 417 0 q 362 -17 389 0 q 317 -63 335 -35 q 300 -125 300 -92 q 320 -179 300 -160 q 375 -199 340 -199 q 417 -192 397 -199 l 417 -219 q 369 -228 394 -228 z "}}}
